<?xml version="1.0" encoding="utf-8"?>
<svg version="1.1" id="Layer_1" x="0px" y="0px" viewBox="0 0 512 512" style="enable-background:new 0 0 512 512;" width="100px" height="100px" xmlns="http://www.w3.org/2000/svg" xmlns:bx="https://boxy-svg.com">
  <path style="fill:#FFE15A;" d="M 400 0 L 361.931 0 L 27.338 473.326 C 47.874 497.016 78.187 512 112 512 L 150.069 512 L 484.662 38.674 C 464.126 14.984 433.813 0 400 0 Z" bx:origin="-0.059778 0.5"/>
  <path style="fill:#73AF00;" d="M 112 0 C 50.144 0 0 50.144 0 112 L 0 400 C 0 428.043 10.307 453.679 27.338 473.326 L 361.931 0 L 112 0 Z" bx:origin="0 0.540853"/>
  <path style="fill:#FF4B55;" d="M 150.069 512 L 400 512 C 461.856 512 512 461.856 512 400 L 512 112 C 512 83.957 501.693 58.321 484.662 38.674 L 150.069 512 Z" bx:origin="-0.414634 0.459147"/>
  <g bx:origin="0 0"/>
  <g bx:origin="0 0"/>
  <g bx:origin="0 0"/>
  <g bx:origin="0 0"/>
  <g bx:origin="0 0"/>
  <g bx:origin="0 0"/>
  <g bx:origin="0 0"/>
  <g bx:origin="0 0"/>
  <g bx:origin="0 0"/>
  <g bx:origin="0 0"/>
  <g bx:origin="0 0"/>
  <g bx:origin="0 0"/>
  <g bx:origin="0 0"/>
  <g bx:origin="0 0"/>
  <g bx:origin="0 0"/>
</svg>