<?xml version="1.0" encoding="utf-8"?>
<svg version="1.1" id="Layer_3" x="0px" y="0px" viewBox="0 0 100 100" style="enable-background:new 0 0 64 64;" width="100px" height="100px" xmlns="http://www.w3.org/2000/svg" xmlns:bx="https://boxy-svg.com">
  <g transform="matrix(1.666667, 0, 0, 1.666667, -3.333334, -3.333334)" bx:origin="0 0">
    <g>
      <rect x="27" y="5" style="fill:#657B88;" width="2" height="16"/>
      <path style="fill:#657B88;" d="M44.352,11.937C44.741,11.79,45,11.417,45,11V5h-2v5.307l-6,2.25V9h-2v12h2v-6.307L44.352,11.937z"/>
      <rect x="39" y="27" style="fill:#657B88;" width="20" height="2"/>
      <path style="fill:#657B88;" d="M55,19c-0.266,0-0.52,0.105-0.707,0.293L50.586,23H38v2h13c0.266,0,0.52-0.105,0.707-0.293    L55.414,21H59v-2H55z"/>
      <path style="fill:#657B88;" d="M51.443,37H55v-2H41v2h8.307l2.757,7.351C52.21,44.741,52.583,45,53,45h6v-2h-5.307L51.443,37z"/>
      <rect x="35" y="44" style="fill:#657B88;" width="2" height="15"/>
      <path style="fill:#657B88;" d="M41,50.586V44h-2v7c0,0.265,0.105,0.52,0.293,0.707L43,55.414V59h2v-4    c0-0.265-0.105-0.52-0.293-0.707L41,50.586z"/>
      <path style="fill:#657B88;" d="M27,49.307l-7.352,2.757C19.259,52.21,19,52.583,19,53v6h2v-5.307l6-2.25V55h2V44h-2V49.307z"/>
      <rect x="5" y="35" style="fill:#657B88;" width="18" height="2"/>
      <path style="fill:#657B88;" d="M23,39H13c-0.266,0-0.52,0.105-0.707,0.293L8.586,43H5v2h4c0.266,0,0.52-0.105,0.707-0.293    L13.414,41H23V39z"/>
      <path style="fill:#657B88;" d="M12.557,27H9v2h16v-1v-1V13c0-0.265-0.105-0.52-0.293-0.707L21,8.586V5h-2v4    c0,0.265,0.105,0.52,0.293,0.707L23,13.414V27h-8.307l-2.757-7.351C11.79,19.259,11.417,19,11,19H5v2h5.307L12.557,27z"/>
    </g>
    <rect x="22" y="33" style="fill:#9D8980;" width="20" height="12"/>
    <path style="fill:#B9ABA5;" d="M36,34.5c0-0.511-0.049-1.009-0.119-1.5H22v11.39c1.096,0.388,2.271,0.61,3.5,0.61   C31.299,45,36,40.299,36,34.5z"/>
    <circle style="fill:#7B909B;" cx="32" cy="39" r="2"/>
    <path style="fill:#7B909B;" d="M36,33v-6c0-2.209-1.791-4-4-4h0c-2.209,0-4,1.791-4,4v6h-4v-6c0-4.418,3.582-8,8-8h0   c4.418,0,8,3.582,8,8v6H36z"/>
    <circle style="fill:#EBB652;" cx="20" cy="4" r="2"/>
    <circle style="fill:#EBB652;" cx="28" cy="4" r="2"/>
    <circle style="fill:#EBB652;" cx="36" cy="8" r="2"/>
    <circle style="fill:#EBB652;" cx="44" cy="4" r="2"/>
    <circle style="fill:#EBB652;" cx="60" cy="20" r="2"/>
    <circle style="fill:#EBB652;" cx="60" cy="28" r="2"/>
    <circle style="fill:#EBB652;" cx="56" cy="36" r="2"/>
    <circle style="fill:#EBB652;" cx="60" cy="44" r="2"/>
    <circle style="fill:#EBB652;" cx="44" cy="60" r="2"/>
    <circle style="fill:#EBB652;" cx="36" cy="60" r="2"/>
    <circle style="fill:#EBB652;" cx="28" cy="56" r="2"/>
    <circle style="fill:#EBB652;" cx="20" cy="60" r="2"/>
    <circle style="fill:#EBB652;" cx="4" cy="44" r="2"/>
    <circle style="fill:#EBB652;" cx="4" cy="36" r="2"/>
    <circle style="fill:#EBB652;" cx="8" cy="28" r="2"/>
    <circle style="fill:#EBB652;" cx="4" cy="20" r="2"/>
  </g>
</svg>