<?xml version="1.0" encoding="utf-8"?>
<svg id="Layer_1" style="enable-background:new 0 0 50 50;" version="1.1" viewBox="0 0 100 100" width="100px" height="100px" xmlns="http://www.w3.org/2000/svg" xmlns:bx="https://boxy-svg.com">
  <style type="text/css">
	.st0{fill:#4D4C4D;}
	.st1{fill:#ED6F62;}
	.st2{fill:#656766;}
	.st3{fill:#E8E4E7;}
	.st4{fill:#53B2E4;}
	.st5{fill:#FFCA65;}
	.st6{fill:#BC8D5D;}
	.st7{fill:#D3D3D3;}
	.st8{fill:#86BE57;}
</style>
  <rect class="st0" height="9.375" width="43.125" x="28.333" y="17.5" bx:origin="-0.656997 -1.866667"/>
  <g transform="matrix(2.083333, 0, 0, 2.083333, -2.083333, -2.083333)" bx:origin="-23.499994 -1.495327">
    <rect class="st0" height="10.7" width="1" x="24.5" y="17"/>
  </g>
  <g transform="matrix(2.083333, 0, 0, 2.083333, -2.083333, -2.083333)" bx:origin="-0.388889 -2.966292">
    <path class="st0" d="M38.5,36.3h-1v-5.1c0-1.5-1.3-2.8-2.8-2.8H15.3c-1.5,0-2.8,1.3-2.8,2.8v5.1h-1v-5.1c0-2.1,1.7-3.8,3.8-3.8   h19.3c2.1,0,3.8,1.7,3.8,3.8v5.1H38.5z"/>
  </g>
  <circle class="st1" cx="50" cy="56.042" r="5.833" bx:origin="-3.785958 -4.303874"/>
  <g transform="matrix(2.083333, 0, 0, 2.083333, -2.083333, -2.083333)" bx:origin="0 -1.857143">
    <g>
      <rect class="st0" height="1.5" width="8.7" x="6.7" y="45.8"/>
      <path class="st2" d="M16.2,47.2H5.9c-0.5,0-0.9,0.4-0.9,0.9l0,0C5,48.6,5.4,49,5.9,49h10.3c0.5,0,0.9-0.4,0.9-0.9l0,0    C17.1,47.6,16.7,47.2,16.2,47.2z"/>
      <path class="st2" d="M19.2,32.2H2.9c-1,0-1.9,0.8-1.9,1.9v10C1,45.2,1.9,46,2.9,46h16.3c1.1,0,1.9-0.9,1.9-1.9v-10    C21.1,33,20.2,32.2,19.2,32.2z"/>
    </g>
    <path class="st3" d="M2.9,43.6c-0.5,0-1-0.4-1-1V34c0-0.5,0.4-1,1-1h16.3c0.5,0,1,0.4,1,1v8.6c0,0.5-0.4,1-1,1H2.9z"/>
    <path class="st4" d="M20.2,34.6V34c0-0.5-0.4-1-1-1H2.9c-0.5,0-1,0.4-1,1v0.6H20.2z"/>
    <rect class="st5" height="7.3" width="5.6" x="2.9" y="35.4"/>
    <rect class="st6" height="2.8" width="9.6" x="9.5" y="35.4"/>
    <rect class="st7" height="0.8" width="9.6" x="9.5" y="39"/>
    <rect class="st7" height="0.8" width="9.6" x="9.5" y="40.5"/>
    <rect class="st7" height="0.8" width="9.6" x="9.5" y="41.9"/>
    <g>
      <rect class="st0" height="1.5" width="8.7" x="34.6" y="45.8"/>
      <path class="st2" d="M44.1,47.2H33.8c-0.5,0-0.9,0.4-0.9,0.9l0,0c0,0.5,0.4,0.9,0.9,0.9h10.3c0.5,0,0.9-0.4,0.9-0.9l0,0    C45,47.6,44.6,47.2,44.1,47.2z"/>
      <path class="st2" d="M47.1,32.2H30.8c-1.1,0-1.9,0.9-1.9,1.9v10c0,1.1,0.9,1.9,1.9,1.9h16.3c1.1,0,1.9-0.9,1.9-1.9v-10    C49,33,48.1,32.2,47.1,32.2z"/>
    </g>
    <path class="st3" d="M30.8,43.6c-0.5,0-1-0.4-1-1V34c0-0.5,0.4-1,1-1h16.3c0.5,0,1,0.4,1,1v8.6c0,0.5-0.4,1-1,1H30.8z"/>
    <path class="st4" d="M48.1,34.6V34c0-0.5-0.4-1-1-1H30.8c-0.5,0-1,0.4-1,1v0.6H48.1z"/>
    <rect class="st1" height="7.3" width="5.6" x="30.8" y="35.4"/>
    <rect class="st8" height="2.8" width="9.6" x="37.5" y="35.4"/>
    <rect class="st7" height="0.8" width="9.6" x="37.5" y="39"/>
    <rect class="st7" height="0.8" width="9.6" x="37.5" y="40.5"/>
    <rect class="st7" height="0.8" width="9.6" x="37.5" y="41.9"/>
  </g>
  <path class="st2" d="M 74.167 0 L 25.833 0 C 23.125 0 20.833 2.292 20.833 5 L 20.833 13.75 C 20.833 16.458 23.125 18.75 25.833 18.75 L 73.958 18.75 C 76.667 18.75 78.958 16.458 78.958 13.75 L 78.958 5 C 78.958 2.292 76.875 0 74.167 0 Z" bx:origin="-0.358417 0"/>
  <g transform="matrix(2.083333, 0, 0, 2.083333, -2.083333, -2.083333)" bx:origin="-1.040983 -0.823529">
    <circle class="st1" cx="15.4" cy="5.5" r="1.7"/>
    <circle class="st8" cx="19.8" cy="5.5" r="1.7"/>
    <circle class="st4" cx="24.2" cy="5.5" r="1.7"/>
  </g>
  <path class="st2" d="M 74.167 24.375 L 25.833 24.375 C 23.125 24.375 20.833 26.667 20.833 29.375 L 20.833 38.125 C 20.833 40.833 23.125 43.125 25.833 43.125 L 73.958 43.125 C 76.667 43.125 78.958 40.833 78.958 38.125 L 78.958 29.167 C 78.958 26.458 76.875 24.375 74.167 24.375 Z" bx:origin="-0.358417 -1.3"/>
  <g transform="matrix(2.083333, 0, 0, 2.083333, -2.083333, -2.083333)" bx:origin="-1.040983 -4.235294">
    <circle class="st1" cx="15.4" cy="17.1" r="1.7"/>
    <circle class="st8" cx="19.8" cy="17.1" r="1.7"/>
    <circle class="st4" cx="24.2" cy="17.1" r="1.7"/>
  </g>
</svg>