<?xml version="1.0" encoding="utf-8"?>
<svg data-name="Layer 1" id="Layer_1" viewBox="0 0 128 128" width="100px" height="100px" xmlns="http://www.w3.org/2000/svg" xmlns:bx="https://boxy-svg.com">
  <defs>
    <style>.cls-1{fill:#4bc190;}.cls-2,.cls-5{fill:#fff;}.cls-2{opacity:0.3;}.cls-3{fill:#356cb6;}.cls-4{fill:#8f5653;}.cls-10,.cls-17,.cls-6,.cls-7{fill:none;stroke-linecap:round;stroke-linejoin:round;}.cls-6{stroke:#356cb6;stroke-width:24px;}.cls-7{stroke:#fbc0aa;stroke-width:20px;}.cls-8{fill:#ffd8c9;}.cls-9{fill:#393c54;}.cls-10,.cls-17{stroke:#515570;}.cls-10{stroke-width:2px;opacity:0.4;}.cls-11{fill:#f85565;}.cls-12{fill:#db7a72;}.cls-13{fill:#bc5b57;}.cls-14{fill:#ff6d00;}.cls-15{fill:#fbc0aa;}.cls-16{fill:#a7aece;}.cls-17{stroke-width:2.22px;}</style>
  </defs>
  <title/>
  <circle class="cls-1" cx="64" cy="64" r="60" transform="matrix(1.066667, 0, 0, 1.065778, -4.266666, -4.263111)" bx:origin="0.5 0"/>
  <circle class="cls-2" cx="64" cy="64" r="48" transform="matrix(1.066667, 0, 0, 1.065778, -4.266666, -4.263111)" bx:origin="0.5 -0.125"/>
  <path class="cls-3" d="M 124.341 85.262 L 67.2 85.262 L 67.2 102.315 L 115.2 102.315 C 119.095 97.127 122.177 91.377 124.341 85.262 Z" bx:origin="-0.056001 -4.999824"/>
  <rect class="cls-4" height="15.987" width="30.933" x="49.067" y="96.986" bx:origin="0.482754 -6.066554"/>
  <path class="cls-5" d="M 64 128 C 79.649 128.027 94.761 122.298 106.453 111.907 L 104.107 106.194 C 102.283 101.931 97.472 99.117 92.064 99.117 L 35.936 99.117 C 30.528 99.117 25.717 101.952 23.893 106.194 L 21.547 111.907 C 33.239 122.298 48.351 128.027 64 128 Z" bx:origin="0.5 -3.431661"/>
  <line class="cls-6" x1="64" x2="64" y1="97.785" y2="100.716" bx:origin="0 -33.362338"/>
  <line class="cls-7" x1="64" x2="64" y1="78.601" y2="92.19" bx:origin="0 -5.784162"/>
  <path class="cls-8" d="M 64 96.314 C 47.314 96.32 33.786 82.803 33.792 66.132 L 33.792 46.287 C 33.792 23.052 58.965 8.53 79.104 20.148 C 88.45 25.539 94.208 35.503 94.208 46.287 L 94.208 66.132 C 94.214 82.803 80.686 96.32 64 96.314 Z" bx:origin="0.5 -0.200099"/>
  <circle class="cls-9" cx="76.67" cy="59.28" r="3" transform="matrix(1.066667, 0, 0, 1.065778, -4.266666, -4.263111)" bx:origin="-1.611666 -8.713333"/>
  <circle class="cls-9" cx="49.67" cy="59.28" r="3" transform="matrix(1.066667, 0, 0, 1.065778, -4.266666, -4.263111)" bx:origin="2.888334 -8.713333"/>
  <line class="cls-10" x1="75.083" x2="85.333" y1="52.223" y2="51.957" bx:origin="-1.081266 -195.327922"/>
  <line class="cls-10" x1="52.267" x2="42.016" y1="52.223" y2="51.957" bx:origin="2.144573 -195.327922"/>
  <line class="cls-10" x1="59.733" x2="68.267" y1="87.394" y2="87.394" bx:origin="0.500002 0"/>
  <path class="cls-9" d="M 69.867 83.131 L 58.133 83.131 C 55.259 83.131 53.463 80.022 54.9 77.535 C 55.567 76.381 56.8 75.67 58.133 75.67 L 69.867 75.67 C 72.741 75.67 74.537 78.779 73.1 81.266 C 72.433 82.42 71.2 83.131 69.867 83.131 Z" bx:origin="0.500001 -10.142074"/>
  <path class="cls-5" d="M 57.6 75.67 L 70.4 75.67 C 70.4 75.67 70.4 75.67 70.4 75.67 L 70.4 75.67 C 70.4 76.847 69.445 77.802 68.267 77.802 L 59.733 77.802 C 58.555 77.802 57.6 76.847 57.6 75.67 L 57.6 75.67 C 57.6 75.67 57.6 75.67 57.6 75.67 Z" bx:origin="0.500002 -35.492431"/>
  <path class="cls-11" d="M 59.733 83.131 L 69.867 83.131 C 71.929 83.131 73.6 81.461 73.6 79.4 C 73.611 79.223 73.611 79.045 73.6 78.868 L 66.133 78.868 C 63.334 78.868 60.81 80.549 59.733 83.131 Z" bx:origin="0.307527 -18.500583"/>
  <path class="cls-12" d="M 106.453 111.907 L 104.107 106.194 C 102.283 101.931 97.472 99.117 92.064 99.117 L 78.933 99.117 L 78.933 125.975 C 88.896 123.406 98.987 118.525 106.453 111.907 Z" bx:origin="-0.542623 -3.690408"/>
  <path class="cls-12" d="M 23.893 106.194 L 21.547 111.907 C 29.399 118.877 38.852 123.805 49.067 126.252 L 49.067 99.117 L 35.936 99.117 C 30.528 99.117 25.717 101.952 23.893 106.194 Z" bx:origin="1.542624 -3.652736"/>
  <path class="cls-13" d="M 78.933 96.986 L 84.267 96.986 C 86.034 96.986 87.467 98.417 87.467 100.183 L 87.467 109.775 C 87.467 114.484 83.646 118.301 78.933 118.301 L 78.933 118.301 C 78.933 118.301 78.933 118.301 78.933 118.301 L 78.933 96.986 C 78.933 96.986 78.933 96.986 78.933 96.986 Z" bx:origin="-1.749821 -4.550128"/>
  <path class="cls-14" d="M 64 70.341 L 82.133 70.341 C 82.133 70.341 82.133 70.341 82.133 70.341 L 82.133 70.341 C 82.133 73.284 79.746 75.67 76.8 75.67 L 69.333 75.67 C 66.388 75.67 64 73.284 64 70.341 L 64 70.341 C 64 70.341 64 70.341 64 70.341 Z" bx:origin="0.000001 -13.199676"/>
  <path class="cls-14" d="M 45.867 70.341 L 64 70.341 C 64 70.341 64 70.341 64 70.341 L 64 70.341 C 64 73.284 61.612 75.67 58.667 75.67 L 51.2 75.67 C 48.254 75.67 45.867 73.284 45.867 70.341 L 45.867 70.341 C 45.867 70.341 45.867 70.341 45.867 70.341 Z" bx:origin="1.000001 -13.199676"/>
  <path class="cls-12" d="M 94.933 74.604 L 98.976 72.59 C 100.422 71.867 101.334 70.39 101.333 68.775 L 101.333 52.095 C 101.33 50.261 100.153 48.634 98.411 48.056 L 94.933 46.894 Z" bx:origin="-4.833277 -1.692314"/>
  <path class="cls-15" d="M 64 72.473 L 64 72.473 C 62.233 72.473 60.8 71.041 60.8 69.276 L 60.8 49.026 L 67.2 49.026 L 67.2 69.276 C 67.2 71.041 65.767 72.473 64 72.473 Z" bx:origin="0.500003 -2.090929"/>
  <path class="cls-12" d="M 33.067 74.604 L 29.024 72.59 C 27.578 71.867 26.666 70.39 26.667 68.775 L 26.667 52.095 C 26.67 50.261 27.847 48.634 29.589 48.056 L 33.067 46.894 Z" bx:origin="5.833283 -1.692314"/>
  <path class="cls-14" d="M 63.765 51.754 C 57.377 51.754 53.384 44.844 56.578 39.317 C 58.061 36.751 60.801 35.171 63.765 35.171" bx:origin="1.028278 -2.120907"/>
  <path class="cls-14" d="M 70.869 56.486 C 64.481 56.486 60.488 49.576 63.682 44.049 C 65.165 41.483 67.905 39.903 70.869 39.903" bx:origin="0.173513 -2.406259"/>
  <path class="cls-13" d="M 40.533 96.986 L 40.533 96.986 C 45.246 96.986 49.067 100.803 49.067 105.512 L 49.067 115.104 C 49.067 116.87 47.634 118.301 45.867 118.301 L 40.533 118.301 C 40.533 118.301 40.533 118.301 40.533 118.301 L 40.533 96.986 C 40.533 96.986 40.533 96.986 40.533 96.986 Z" transform="matrix(-1, 0, 0, -1, 89.600002, 215.287003)" bx:origin="-1.749827 5.550128"/>
  <path class="cls-13" d="M 63.019 11.862 C 45.429 12.384 31.659 27.263 31.659 44.848 L 31.659 76.821 C 31.659 77.333 31.659 88.545 31.659 88.992 C 31.797 91.934 36.235 91.785 36.235 88.833 L 36.235 54.355 C 36.235 48.456 41.03 43.679 46.933 43.697 L 81.067 43.697 C 86.958 43.697 91.733 48.469 91.733 54.355 L 91.733 88.801 C 91.733 91.753 96.171 91.902 96.309 88.96 C 96.309 88.46 96.309 77.301 96.309 76.789 L 96.309 44.155 C 96.287 25.948 81.234 11.346 63.019 11.862 Z" bx:origin="0.500248 -0.149463"/>
  <path class="cls-4" d="M 88.533 33.039 L 96 33.039 C 97.178 33.039 98.133 33.993 98.133 35.171 L 98.133 37.302 C 98.133 38.479 97.178 39.434 96 39.434 L 88.533 39.434 C 88.533 39.434 88.533 39.434 88.533 39.434 L 88.533 33.039 C 88.533 33.039 88.533 33.039 88.533 33.039 Z" bx:origin="-2.555517 -5.166383"/>
  <path class="cls-5" d="M 88.533 31.973 L 91.733 31.973 C 92.912 31.973 93.867 32.928 93.867 34.105 L 93.867 38.368 C 93.867 39.545 92.912 40.5 91.733 40.5 L 88.533 40.5 C 88.533 40.5 88.533 40.5 88.533 40.5 L 88.533 31.973 C 88.533 31.973 88.533 31.973 88.533 31.973 Z" bx:origin="-4.599359 -3.749619"/>
  <path class="cls-4" d="M 32 33.039 L 39.467 33.039 C 39.467 33.039 39.467 33.039 39.467 33.039 L 39.467 39.434 C 39.467 39.434 39.467 39.434 39.467 39.434 L 32 39.434 C 30.822 39.434 29.867 38.479 29.867 37.302 L 29.867 35.171 C 29.867 33.993 30.822 33.039 32 33.039 Z" bx:origin="3.555523 -5.166383"/>
  <path class="cls-5" d="M 34.133 31.973 L 37.333 31.973 C 38.512 31.973 39.467 32.928 39.467 34.105 L 39.467 38.368 C 39.467 39.545 38.512 40.5 37.333 40.5 L 34.133 40.5 C 34.133 40.5 34.133 40.5 34.133 40.5 L 34.133 31.973 C 34.133 31.973 34.133 31.973 34.133 31.973 Z" transform="matrix(-1, 0, 0, -1, 73.599998, 72.473)" bx:origin="-4.599367 4.749619"/>
  <rect class="cls-4" height="6.395" width="10.667" x="57.6" y="33.039" bx:origin="0.599983 -5.16638"/>
  <circle class="cls-3" cx="77" cy="39.28" r="11" transform="matrix(1.066667, 0, 0, 1.065778, -4.266666, -4.263111)" bx:origin="-0.090909 -1.103636"/>
  <circle class="cls-16" cx="77" cy="39.28" r="6.88" transform="matrix(1.066667, 0, 0, 1.065778, -4.266666, -4.263111)" bx:origin="-0.444768 -2.063953"/>
  <path class="cls-2" d="M 77.867 30.268 C 77.661 30.257 77.454 30.257 77.248 30.268 L 70.56 36.982 C 70.56 37.185 70.56 37.387 70.56 37.601 C 70.556 38.953 70.925 40.281 71.627 41.437 L 81.717 31.366 C 80.561 30.649 79.227 30.269 77.867 30.268 Z" bx:origin="-0.587965 -2.707263"/>
  <path class="cls-2" d="M 74.496 44.102 L 84.373 34.233 C 84.059 33.641 83.664 33.096 83.2 32.613 L 72.843 42.961 C 73.342 43.411 73.898 43.795 74.496 44.102 Z" bx:origin="-0.766954 -2.838628"/>
  <circle class="cls-17" cx="77" cy="39.28" r="9.98" transform="matrix(1.066667, 0, 0, 1.065778, -4.266666, -4.263111)" bx:origin="-0.151303 -1.267535"/>
  <circle class="cls-3" cx="51" cy="39.28" r="11" transform="matrix(1.066667, 0, 0, 1.065778, -4.266666, -4.263111)" bx:origin="1.090909 -1.103636"/>
  <circle class="cls-17" cx="51" cy="39.28" r="9.98" transform="matrix(1.066667, 0, 0, 1.065778, -4.266666, -4.263111)" bx:origin="1.151303 -1.267535"/>
  <circle class="cls-16" cx="51" cy="39.28" r="6.88" transform="matrix(1.066667, 0, 0, 1.065778, -4.266666, -4.263111)" bx:origin="1.444767 -2.063953"/>
  <path class="cls-2" d="M 50.133 30.268 C 49.927 30.257 49.721 30.257 49.515 30.268 L 42.827 36.982 C 42.827 37.185 42.827 37.387 42.827 37.601 C 42.822 38.953 43.191 40.281 43.893 41.437 L 53.984 31.366 C 52.828 30.649 51.494 30.269 50.133 30.268 Z" bx:origin="1.89773 -2.707263"/>
  <path class="cls-2" d="M 46.763 44.102 L 56.64 34.233 C 56.325 33.641 55.931 33.096 55.467 32.613 L 45.109 42.961 C 45.609 43.411 46.165 43.795 46.763 44.102 Z" bx:origin="1.638281 -2.838628"/>
</svg>