<?xml version="1.0" encoding="utf-8"?>
<svg viewBox="0 0 456.621 100" width="456.621px" height="100px" xmlns="http://www.w3.org/2000/svg" xmlns:bx="https://boxy-svg.com">
  <defs>
    <style>.cls-1{fill:#31363a;}</style>
  </defs>
  <g id="Calque_2" data-name="Calque 2" transform="matrix(2.032322, 0, 0, 2.032322, 0.010231, 0)" bx:origin="0.000044 0">
    <g id="Calque_1-2" data-name="Calque 1">
      <path class="cls-1" d="M91.8,10.7H89.3a.7.7,0,0,0-.7.7V27.2a.7.7,0,0,0,.7.7h2.5a.7.7,0,0,0,.7-.7V11.4a.7.7,0,0,0-.7-.7"/>
      <path class="cls-1" d="M71.1,10.5a8.2,8.2,0,0,0-5.9,2.3.5.5,0,0,1-.6-.1,6.9,6.9,0,0,0-5.4-2.2,7.4,7.4,0,0,0-5,1.8v-.9a.7.7,0,0,0-.7-.7H51a.7.7,0,0,0-.7.7V27.2a.7.7,0,0,0,.7.7h2.6a.7.7,0,0,0,.7-.7V19.1c0-3.1,1.6-4.9,4.3-4.9s3.7,1.4,3.7,4.2v8.8a.7.7,0,0,0,.7.7h2.6a.7.7,0,0,0,.7-.7V19.1c0-3.1,1.5-4.9,4.3-4.9s3.6,1.4,3.6,4.2v8.8a.8.8,0,0,0,.7.7h2.6a.7.7,0,0,0,.7-.7V18.1c0-4.8-2.6-7.6-7.1-7.6"/>
      <path class="cls-1" d="M184,10.7H168.5a.7.7,0,0,0-.7.7v2.3a.7.7,0,0,0,.7.7h5.3a.5.5,0,0,1,.4.5V27.2a.7.7,0,0,0,.7.7h2.7a.7.7,0,0,0,.7-.7V14.9a.5.5,0,0,1,.5-.5H184a.7.7,0,0,0,.7-.7V11.4a.7.7,0,0,0-.7-.7"/>
      <path class="cls-1" d="M224.1,27.2,217,18.3c-.1-.2-.1-.5.1-.6l6.3-6.2a.5.5,0,0,0-.3-.8h-3.7l-.5.2-7.1,6.5a.4.4,0,0,1-.7-.3V11.4a.8.8,0,0,0-.7-.7h-2.6a.7.7,0,0,0-.7.7V27.2a.7.7,0,0,0,.7.7h2.6a.8.8,0,0,0,.7-.7V23.5c0-.2.1-.3.3-.5l2.2-2c.2-.2.5-.2.6,0l5.4,6.7.5.2h3.7a.4.4,0,0,0,.4-.7"/>
      <path class="cls-1" d="M196,10.7h-2.5a.7.7,0,0,0-.7.7V27.2a.7.7,0,0,0,.7.7H196a.8.8,0,0,0,.8-.7V11.4a.8.8,0,0,0-.8-.7"/>
      <path class="cls-1" d="M112.8,18.3c-.1-.2-.1-.5.1-.6l6.3-6.2a.5.5,0,0,0-.3-.8h-3.7l-.5.2-7.1,6.5a.4.4,0,0,1-.7-.3V11.4a.8.8,0,0,0-.7-.7h-2.6a.7.7,0,0,0-.7.7V27.2a.7.7,0,0,0,.7.7h2.5a.8.8,0,0,0,.8-.7V23.5c0-.2.1-.3.3-.5l2.2-2c.2-.2.5-.2.6,0l5.4,6.7.5.2h3.7a.4.4,0,0,0,.4-.7Z"/>
      <path class="cls-1" d="M153.5,10.5a8.6,8.6,0,0,0-9,8.8,9,9,0,0,0,17.9,0,8.5,8.5,0,0,0-8.9-8.8m0,14c-2.9,0-4.9-2.1-4.9-5.2a4.8,4.8,0,0,1,4.9-5.1,4.7,4.7,0,0,1,4.9,5.1c0,3.1-2,5.2-4.9,5.2"/>
      <path class="cls-1" d="M138.3,10.6h-1.2a7.1,7.1,0,0,0-5.3,1.9v-1a.7.7,0,0,0-.7-.7h-2.5a.7.7,0,0,0-.7.7V27.2a.7.7,0,0,0,.7.7h2.6a.7.7,0,0,0,.7-.7V19.3c0-3.1,1.6-4.9,4.5-4.9h2a.8.8,0,0,0,.8-.7V11.6a1.1,1.1,0,0,0-.9-1"/>
      <path class="cls-1" d="M35.8,9.7l-.2-.3A5.9,5.9,0,0,0,33.7,8L27.2,4.4,20.7.8A8.5,8.5,0,0,0,18.5,0h-.4a5.9,5.9,0,0,0-2.5.8L9.1,4.4,2.5,8A5.4,5.4,0,0,0,.7,9.4l-.2.3a.4.4,0,0,0-.1.3A4.6,4.6,0,0,0,0,12.2V26.5A5.8,5.8,0,0,0,.5,29a7.1,7.1,0,0,0,2,1.7l6.6,3.5,6.5,3.6a5.4,5.4,0,0,0,2.2.8h.7a5.9,5.9,0,0,0,2.2-.8l13-7.1A6.4,6.4,0,0,0,35.8,29c0-.1.1-.2.1-.3a4.8,4.8,0,0,0,.4-2.2V12.2a4.6,4.6,0,0,0-.4-2.2c0-.1-.1-.2-.1-.3M10.5,26.8a.4.4,0,0,1-.7.3L7.5,25.9a1.7,1.7,0,0,1-.9-1.6V17.4a.4.4,0,0,1,.6-.3L10,18.6a.8.8,0,0,1,.5.7Zm19.2-2.5a1.9,1.9,0,0,1-.9,1.6l-2.4,1.2c-.2.2-.6,0-.6-.3V17.6a.4.4,0,0,0-.6-.4L21,19.5a1.6,1.6,0,0,0-.9,1.5v9.1a1,1,0,0,1-.5.8l-.6.3a1.7,1.7,0,0,1-1.7,0l-.7-.3a1.2,1.2,0,0,1-.4-.8V21a1.6,1.6,0,0,0-.9-1.5L6.6,14.8v-.5a1.6,1.6,0,0,1,.9-1.5l.9-.5a1.7,1.7,0,0,1,1.7,0l7.2,3.9a1.7,1.7,0,0,0,1.7,0l3.3-1.8a.5.5,0,0,0,0-.8L14.8,9.5a.4.4,0,0,1,0-.7l2.5-1.4a1.7,1.7,0,0,1,1.7,0l9.8,5.4a1.9,1.9,0,0,1,.9,1.5Z"/>
      <polygon class="cls-1" points="51.8 40.9 49.5 40.9 49.5 38.7 56.5 38.7 56.5 40.9 54.2 40.9 54.2 49 51.8 49 51.8 40.9"/>
      <path class="cls-1" d="M60,45v4H57.7V38.7h3.5c2.2,0,3.5,1.1,3.5,3.2a2.9,2.9,0,0,1-2.3,2.9l3,4.2H62.6Zm1.1-1.9a1.1,1.1,0,0,0,1.2-1.2,1.1,1.1,0,0,0-1.2-1.2H60v2.4Z"/>
      <path class="cls-1" d="M69.1,38.7h2.2L74.8,49H72.4l-.5-1.5H68.5L68,49H65.6Zm2.2,6.8-1.1-3.7-1.1,3.7Z"/>
      <rect class="cls-1" x="76" y="38.7" width="2.3" height="10.3"/>
      <polygon class="cls-1" points="80.3 38.7 82.4 38.7 86.3 44.8 86.3 38.7 88.5 38.7 88.5 49 86.4 49 82.5 42.9 82.5 49 80.3 49 80.3 38.7"/>
      <rect class="cls-1" x="90.5" y="38.7" width="2.3" height="10.3"/>
      <polygon class="cls-1" points="94.8 38.7 96.9 38.7 100.9 44.8 100.9 38.7 103 38.7 103 49 100.9 49 97 42.9 97 49 94.8 49 94.8 38.7"/>
      <path class="cls-1" d="M104.6,43.9a5.2,5.2,0,0,1,5.4-5.4,5.4,5.4,0,0,1,4.1,1.8l-1.7,1.6a3.3,3.3,0,0,0-2.4-1.2,2.9,2.9,0,0,0-3,3.2,2.9,2.9,0,0,0,3,3.1,2.4,2.4,0,0,0,2.6-2h-3V43h5.5v.9a4.9,4.9,0,0,1-5.1,5.3,5.2,5.2,0,0,1-5.4-5.3"/>
      <rect class="cls-1" x="120.1" y="38.7" width="104.1" height="0.85"/>
    </g>
  </g>
</svg>