<?xml version="1.0" encoding="utf-8"?>
<svg id="Layer_1" data-name="Layer 1" viewBox="0 0 195.9 100" xmlns="http://www.w3.org/2000/svg" xmlns:bx="https://boxy-svg.com">
  <defs>
    <style>.cls-1{fill:#fff;}.cls-2{fill:none;}.cls-3,.cls-4{fill:#404041;}.cls-4{fill-rule:evenodd;}</style>
  </defs>
  <rect class="cls-1" x="1.508" y="1.508" width="192.898" height="96.984" rx="8.5" bx:origin="-0.007818 -0.015549"/>
  <path class="cls-2" d="M 192.898 56.951 L 192.898 14.324 C 192.881 8.08 187.819 3.024 181.574 3.016 L 14.324 3.016 C 8.086 3.032 3.032 8.086 3.016 14.324 L 3.016 56.951 L 192.898 56.951 Z" bx:origin="-0.015884 -0.055919"/>
  <path class="cls-3" d="M 181.574 0 L 14.324 0 C 6.417 0.008 0.008 6.417 0 14.324 L 0 85.676 C 0.008 93.583 6.417 99.992 14.324 100 L 181.574 100 C 189.484 99.992 195.897 93.586 195.914 85.676 L 195.914 14.324 C 195.897 6.414 189.484 0.008 181.574 0 Z M 14.324 3.016 L 181.574 3.016 C 187.819 3.024 192.881 8.08 192.898 14.324 L 192.898 56.951 L 3.016 56.951 L 3.016 14.324 C 3.032 8.086 8.086 3.032 14.324 3.016 Z" bx:origin="0 0"/>
  <polygon class="cls-3" points="40.078 23.462 34.68 44.195 36.972 44.195 41.677 25.151 41.752 25.151 45.748 44.195 48.13 44.195 61.882 25.437 61.957 25.437 56.831 44.195 59.168 44.195 64.49 23.462 61.052 23.462 47.391 42.069 43.531 23.462 40.078 23.462" bx:origin="-1.163371 -1.131626"/>
  <polygon class="cls-3" points="66.737 29.207 62.862 44.195 65.063 44.195 68.923 29.207 66.737 29.207" bx:origin="-10.371574 -1.948692"/>
  <polygon class="cls-3" points="72.09 29.207 68.26 44.195 70.461 44.195 71.849 38.767 75.679 36.098 80.458 44.195 82.856 44.195 77.428 34.982 85.917 29.207 82.992 29.207 72.482 36.535 72.407 36.475 74.276 29.207 72.09 29.207" bx:origin="-3.865894 -1.948692"/>
  <path class="cls-4" d="M 87.214 29.207 L 83.353 44.195 L 85.54 44.195 L 87.56 36.354 C 88.209 33.133 91.045 30.821 94.331 30.835 L 95.582 30.835 L 96.065 29.011 C 95.688 29.011 95.265 29.011 94.888 29.011 C 92.206 28.913 89.693 30.321 88.375 32.66 L 89.279 29.207 L 87.214 29.207 Z" bx:origin="-6.557036 -1.909709"/>
  <path class="cls-4" d="M 111.294 34.68 C 111.294 31.001 108.369 28.815 104.192 28.815 C 98.697 28.528 94.099 32.933 94.15 38.435 C 94.15 42.174 96.698 44.677 101.327 44.677 C 106.942 44.923 111.556 40.295 111.294 34.68 M 109.092 35.057 C 109.092 38.54 106.559 43.139 101.749 43.139 C 98.085 43.139 96.351 41.164 96.351 38.254 C 96.266 34.03 99.578 30.516 103.8 30.353 C 107.328 30.353 109.092 32.283 109.092 35.057" bx:origin="-5.488159 -1.81318"/>
  <polygon class="cls-4" points="132.358 29.207 133.776 23.462 112.319 23.462 110.902 29.207 117.793 29.207 117.793 29.207 125.467 29.207 125.467 29.207 132.358 29.207" bx:origin="-4.84839 -4.083898"/>
  <polygon class="cls-4" points="117.099 31.951 114.068 44.18 121.728 44.18 124.774 31.966 124.774 31.951 117.099 31.951 117.099 31.951" bx:origin="-10.654592 -2.612724"/>
  <path class="cls-4" d="M 133.58 31.951 L 130.564 44.195 L 137.47 44.195 L 140.486 31.951 L 133.58 31.951 Z M 141.119 29.207 L 142.627 23.462 L 135.706 23.462 L 134.198 29.207 L 141.119 29.207 Z" bx:origin="-10.823513 -1.131626"/>
  <polygon class="cls-4" points="145.461 23.462 140.305 44.195 147.211 44.195 148.281 39.897 149.849 38.736 152.292 44.195 159.786 44.195 155.187 35.193 163.299 29.116 155.051 29.116 149.955 33.534 149.894 33.534 152.367 23.462 145.461 23.462" bx:origin="-6.101811 -1.131626"/>
  <path class="cls-4" d="M 69.692 13.375 C 70.537 19.225 73.688 22.783 80.081 23.085 C 74.406 25.273 68.491 20.496 69.434 14.488 C 69.493 14.111 69.58 13.739 69.692 13.375" bx:origin="-6.451698 -1.304851"/>
  <path class="cls-4" d="M 66.345 14.415 C 66.345 14.415 66.435 14.415 66.435 14.415 C 66.721 21.189 72.367 26.494 79.147 26.357 C 72.099 29.019 64.813 23.054 66.032 15.62 C 66.105 15.171 66.21 14.728 66.345 14.294" bx:origin="-4.973612 -1.124782"/>
  <path class="cls-1" d="M 39.279 89.174 L 36.761 89.174 L 36.761 70.748 L 29.855 70.748 L 29.855 68.486 L 46.185 68.486 L 46.185 70.748 L 39.279 70.748 L 39.279 89.174 Z" bx:origin="-1.828235 -3.310421"/>
  <path class="cls-1" d="M 52.156 80.609 L 52.156 89.174 L 49.638 89.174 L 49.638 68.486 L 54.991 68.486 C 55.911 68.486 56.665 68.486 57.298 68.577 C 57.887 68.644 58.472 68.749 59.047 68.893 C 60.325 69.196 61.478 69.886 62.349 70.869 C 63.13 71.881 63.535 73.134 63.495 74.412 C 63.508 75.175 63.37 75.934 63.088 76.644 C 62.835 77.303 62.451 77.903 61.957 78.408 C 61.458 78.909 60.87 79.313 60.223 79.599 C 59.508 79.926 58.753 80.154 57.976 80.277 L 64.098 89.128 L 61.58 89.128 L 55.202 80.564 L 52.156 80.609 Z M 52.156 70.748 L 52.156 78.287 L 54.644 78.287 C 55.413 78.287 56.077 78.287 56.619 78.212 C 57.13 78.166 57.635 78.07 58.127 77.925 C 58.918 77.719 59.624 77.271 60.148 76.644 C 60.649 75.982 60.9 75.165 60.856 74.337 C 60.894 73.569 60.653 72.814 60.178 72.21 C 59.698 71.641 59.056 71.231 58.338 71.034 C 57.905 70.911 57.461 70.831 57.011 70.793 C 56.36 70.726 55.706 70.696 55.051 70.703 L 52.156 70.748 Z" bx:origin="-3.432786 -3.310421"/>
  <path class="cls-1" d="M 67.024 89.174 L 75.392 68.486 L 77.563 68.486 L 85.992 89.174 L 83.323 89.174 L 80.85 82.931 L 72.195 82.931 L 69.723 89.174 L 67.024 89.174 Z M 76.523 71.698 C 75.588 74.276 74.714 76.613 73.869 78.724 L 73.1 80.669 L 79.916 80.669 L 79.131 78.724 C 78.272 76.583 77.413 74.201 76.538 71.698 L 76.523 71.698 Z" bx:origin="-3.533535 -3.310421"/>
  <path class="cls-1" d="M 89.475 89.174 L 89.475 68.486 L 91.978 68.486 L 91.978 89.174 L 89.475 89.174 Z" bx:origin="-35.747157 -3.310421"/>
  <path class="cls-1" d="M 108.127 80.021 C 109.424 81.851 110.676 83.725 111.882 85.645 L 111.972 85.645 C 111.852 83.64 111.776 81.589 111.776 79.493 L 111.776 68.486 L 114.309 68.486 L 114.309 89.174 L 111.791 89.174 L 103.679 77.639 C 102.277 75.633 101.025 73.748 99.925 72.014 L 99.819 72.014 C 99.955 73.899 100.03 76.101 100.03 78.604 L 100.03 89.159 L 97.512 89.159 L 97.512 68.486 L 100.015 68.486 L 108.127 80.021 Z" bx:origin="-5.805328 -3.310421"/>
  <path class="cls-1" d="M 119.813 89.174 L 119.813 68.486 L 122.331 68.486 L 122.331 89.174 L 119.813 89.174 Z" bx:origin="-47.58268 -3.310421"/>
  <path class="cls-1" d="M 138.465 80.021 C 139.732 81.851 140.983 83.725 142.22 85.645 L 142.31 85.645 C 142.189 83.64 142.114 81.589 142.114 79.493 L 142.114 68.486 L 144.647 68.486 L 144.647 89.174 L 142.129 89.174 L 134.017 77.639 C 132.615 75.633 131.363 73.748 130.262 72.014 L 130.172 72.014 C 130.293 73.899 130.368 76.101 130.368 78.604 L 130.368 89.159 L 127.85 89.159 L 127.85 68.486 L 130.353 68.486 L 138.465 80.021 Z" bx:origin="-7.611481 -3.310421"/>
  <path class="cls-1" d="M 163.51 80.805 L 158.806 80.805 L 158.806 78.528 L 166.043 78.528 L 166.043 88.54 C 165.731 88.681 165.409 88.797 165.078 88.887 C 164.671 89.008 164.189 89.113 163.661 89.219 C 163.133 89.324 162.545 89.4 161.927 89.46 C 161.309 89.521 160.706 89.551 160.118 89.551 C 158.525 89.581 156.938 89.336 155.428 88.827 C 154.153 88.398 152.986 87.698 152.005 86.776 C 151.08 85.869 150.369 84.767 149.925 83.549 C 149.461 82.186 149.242 80.752 149.276 79.312 C 149.253 77.739 149.518 76.175 150.06 74.698 C 150.537 73.369 151.299 72.159 152.292 71.155 C 153.312 70.159 154.529 69.389 155.866 68.893 C 157.342 68.35 158.906 68.079 160.48 68.094 C 160.932 68.094 161.384 68.094 161.852 68.094 C 162.319 68.094 162.726 68.185 163.148 68.245 C 163.571 68.305 163.932 68.396 164.294 68.486 C 164.591 68.566 164.883 68.661 165.169 68.773 L 165.169 71.004 C 164.475 70.777 163.764 70.606 163.043 70.492 C 162.247 70.347 161.439 70.277 160.63 70.28 C 159.489 70.277 158.353 70.455 157.268 70.808 C 156.226 71.155 155.263 71.703 154.433 72.422 C 153.597 73.176 152.934 74.102 152.488 75.136 C 151.981 76.348 151.735 77.652 151.764 78.966 C 151.733 80.229 151.938 81.487 152.367 82.675 C 152.729 83.654 153.312 84.537 154.071 85.253 C 154.835 85.96 155.754 86.476 156.755 86.761 C 157.889 87.106 159.069 87.274 160.253 87.259 C 160.843 87.259 161.431 87.229 162.018 87.168 C 162.525 87.11 163.029 87.02 163.525 86.897 L 163.51 80.805 Z" bx:origin="-8.900942 -3.173032"/>
</svg>