<svg id="Layer_1" data-name="Layer 1" xmlns="http://www.w3.org/2000/svg" viewBox="0 0 129.93 66.32"><defs><style>.cls-1{fill:#fff;}.cls-2{fill:none;}.cls-3,.cls-4{fill:#404041;}.cls-4{fill-rule:evenodd;}</style></defs><rect class="cls-1" x="1" y="1" width="127.93" height="64.32" rx="8.5"/><path class="cls-2" d="M127.93,37.77V9.5A7.52,7.52,0,0,0,120.42,2H9.5A7.52,7.52,0,0,0,2,9.5V37.77Z"/><path class="cls-3" d="M120.42,0H9.5A9.51,9.51,0,0,0,0,9.5V56.82a9.51,9.51,0,0,0,9.5,9.5H120.42a9.52,9.52,0,0,0,9.51-9.5V9.5A9.52,9.52,0,0,0,120.42,0ZM9.5,2H120.42a7.52,7.52,0,0,1,7.51,7.5V37.77H2V9.5A7.52,7.52,0,0,1,9.5,2Z"/><polygon class="cls-3" points="26.58 15.56 23 29.31 24.52 29.31 27.64 16.68 27.69 16.68 30.34 29.31 31.92 29.31 41.04 16.87 41.09 16.87 37.69 29.31 39.24 29.31 42.77 15.56 40.49 15.56 31.43 27.9 28.87 15.56 26.58 15.56"/><polygon class="cls-3" points="44.26 19.37 41.69 29.31 43.15 29.31 45.71 19.37 44.26 19.37"/><polygon class="cls-3" points="47.81 19.37 45.27 29.31 46.73 29.31 47.65 25.71 50.19 23.94 53.36 29.31 54.95 29.31 51.35 23.2 56.98 19.37 55.04 19.37 48.07 24.23 48.02 24.19 49.26 19.37 47.81 19.37"/><path class="cls-4" d="M57.84,19.37l-2.56,9.94h1.45l1.34-5.2a4.56,4.56,0,0,1,4.49-3.66l.83,0,.32-1.21c-.25,0-.53,0-.78,0a4.76,4.76,0,0,0-4.32,2.42h0l.6-2.29Z"/><path class="cls-4" d="M73.81,23c0-2.44-1.94-3.89-4.71-3.89a6.33,6.33,0,0,0-6.66,6.38c0,2.48,1.69,4.14,4.76,4.14A6.34,6.34,0,0,0,73.81,23m-1.46.25c0,2.31-1.68,5.36-4.87,5.36-2.43,0-3.58-1.31-3.58-3.24a5.14,5.14,0,0,1,4.94-5.24c2.34,0,3.51,1.28,3.51,3.12"/><polygon class="cls-4" points="87.78 19.37 88.72 15.56 74.49 15.56 73.55 19.37 78.12 19.37 78.12 19.37 83.21 19.37 83.21 19.37 87.78 19.37"/><polygon class="cls-4" points="77.66 21.19 75.65 29.3 80.73 29.3 82.75 21.2 82.75 21.19 77.66 21.19 77.66 21.19"/><path class="cls-4" d="M88.59,21.19l-2,8.12h4.58l2-8.12Zm5-1.82,1-3.81H90l-1,3.81Z"/><polygon class="cls-4" points="96.47 15.56 93.05 29.31 97.63 29.31 98.34 26.46 99.38 25.69 101 29.31 105.97 29.31 102.92 23.34 108.3 19.31 102.83 19.31 99.45 22.24 99.41 22.24 101.05 15.56 96.47 15.56"/><path class="cls-4" d="M46.22,8.87c.56,3.88,2.65,6.24,6.89,6.44a5.24,5.24,0,0,1-6.89-6.44"/><path class="cls-4" d="M44,9.56s.06,0,.06,0a8.27,8.27,0,0,0,8.43,7.92,6.49,6.49,0,0,1-8.49-8"/><path class="cls-1" d="M26.05,59.14H24.38V46.92H19.8v-1.5H30.63v1.5H26.05Z"/><path class="cls-1" d="M34.59,53.46v5.68H32.92V45.42h3.55c.61,0,1.11,0,1.53.06a8.93,8.93,0,0,1,1.16.21A4.23,4.23,0,0,1,41.35,47a3.66,3.66,0,0,1,.76,2.35,3.83,3.83,0,0,1-.27,1.48A3.43,3.43,0,0,1,41.09,52a3.79,3.79,0,0,1-1.15.79,5.75,5.75,0,0,1-1.49.45v0l4.06,5.87H40.84l-4.23-5.68Zm0-6.54v5h1.65c.51,0,.95,0,1.31-.05a5.16,5.16,0,0,0,1-.19,2.6,2.6,0,0,0,1.34-.85,2.33,2.33,0,0,0,.47-1.53,2.11,2.11,0,0,0-.45-1.41,2.44,2.44,0,0,0-1.22-.78,4.64,4.64,0,0,0-.88-.16,11.58,11.58,0,0,0-1.3-.06Z"/><path class="cls-1" d="M44.45,59.14,50,45.42h1.44l5.59,13.72H55.26L53.62,55H47.88l-1.64,4.14Zm6.3-11.59c-.62,1.71-1.2,3.26-1.76,4.66l-.51,1.29H53l-.52-1.29c-.57-1.42-1.14-3-1.72-4.66Z"/><path class="cls-1" d="M59.34,59.14V45.42H61V59.14Z"/><path class="cls-1" d="M71.71,53.07Q73,54.89,74.2,56.8h.06c-.08-1.33-.13-2.69-.13-4.08v-7.3h1.68V59.14H74.14l-5.38-7.65c-.93-1.33-1.76-2.58-2.49-3.73H66.2c.09,1.25.14,2.71.14,4.37v7H64.67V45.42h1.66Z"/><path class="cls-1" d="M79.46,59.14V45.42h1.67V59.14Z"/><path class="cls-1" d="M91.83,53.07q1.26,1.82,2.49,3.73h.06c-.08-1.33-.13-2.69-.13-4.08v-7.3h1.68V59.14H94.26l-5.38-7.65c-.93-1.33-1.76-2.58-2.49-3.73h-.06c.08,1.25.13,2.71.13,4.37v7H84.79V45.42h1.66Z"/><path class="cls-1" d="M108.44,53.59h-3.12V52.08h4.8v6.64a4.38,4.38,0,0,1-.64.23c-.27.08-.59.15-.94.22s-.74.12-1.15.16-.81.06-1.2.06a9.2,9.2,0,0,1-3.11-.48,6.2,6.2,0,0,1-2.27-1.36,5.77,5.77,0,0,1-1.38-2.14A8.12,8.12,0,0,1,99,52.6a8.51,8.51,0,0,1,.52-3.06A6.43,6.43,0,0,1,101,47.19a6.75,6.75,0,0,1,2.37-1.5,8.62,8.62,0,0,1,3.06-.53c.3,0,.6,0,.91,0s.58.06.86.1.52.1.76.16a5.66,5.66,0,0,1,.58.19v1.48a9.13,9.13,0,0,0-1.41-.34,8.73,8.73,0,0,0-1.6-.14,7.13,7.13,0,0,0-2.23.35,5.54,5.54,0,0,0-1.88,1.07,5.19,5.19,0,0,0-1.29,1.8,6.22,6.22,0,0,0-.48,2.54,6.75,6.75,0,0,0,.4,2.46,4.49,4.49,0,0,0,1.13,1.71,4.39,4.39,0,0,0,1.78,1,7.65,7.65,0,0,0,2.32.33,11.17,11.17,0,0,0,1.17-.06,7.89,7.89,0,0,0,1-.18Z"/></svg>