<svg id="Layer_1" data-name="Layer 1" xmlns="http://www.w3.org/2000/svg" viewBox="0 0 129.93 66.32"><defs><style>.cls-1{fill:#fff;}.cls-2{fill:none;}.cls-3,.cls-4{fill:#404041;}.cls-4{fill-rule:evenodd;}</style></defs><rect class="cls-1" x="1" y="1" width="127.93" height="64.32" rx="8.5"/><path class="cls-2" d="M127.93,37.77V9.5A7.52,7.52,0,0,0,120.42,2H9.5A7.52,7.52,0,0,0,2,9.5V37.77Z"/><path class="cls-3" d="M120.42,0H9.5A9.51,9.51,0,0,0,0,9.5V56.82a9.51,9.51,0,0,0,9.5,9.5H120.42a9.52,9.52,0,0,0,9.51-9.5V9.5A9.52,9.52,0,0,0,120.42,0ZM9.5,2H120.42a7.52,7.52,0,0,1,7.51,7.5V37.77H2V9.5A7.52,7.52,0,0,1,9.5,2Z"/><polygon class="cls-3" points="26.58 15.56 23 29.31 24.52 29.31 27.64 16.68 27.69 16.68 30.34 29.31 31.92 29.31 41.04 16.87 41.09 16.87 37.69 29.31 39.24 29.31 42.77 15.56 40.49 15.56 31.43 27.9 28.87 15.56 26.58 15.56"/><polygon class="cls-3" points="44.26 19.37 41.69 29.31 43.15 29.31 45.71 19.37 44.26 19.37"/><polygon class="cls-3" points="47.81 19.37 45.27 29.31 46.73 29.31 47.65 25.71 50.19 23.94 53.36 29.31 54.95 29.31 51.35 23.2 56.98 19.37 55.04 19.37 48.07 24.23 48.02 24.19 49.26 19.37 47.81 19.37"/><path class="cls-4" d="M57.84,19.37l-2.56,9.94h1.45l1.34-5.2a4.56,4.56,0,0,1,4.49-3.66l.83,0,.32-1.21c-.25,0-.53,0-.78,0a4.76,4.76,0,0,0-4.32,2.42h0l.6-2.29Z"/><path class="cls-4" d="M73.81,23c0-2.44-1.94-3.89-4.71-3.89a6.33,6.33,0,0,0-6.66,6.38c0,2.48,1.69,4.14,4.76,4.14A6.34,6.34,0,0,0,73.81,23m-1.46.25c0,2.31-1.68,5.36-4.87,5.36-2.43,0-3.58-1.31-3.58-3.24a5.14,5.14,0,0,1,4.94-5.24c2.34,0,3.51,1.28,3.51,3.12"/><polygon class="cls-4" points="87.78 19.37 88.72 15.56 74.49 15.56 73.55 19.37 78.12 19.37 78.12 19.37 83.21 19.37 83.21 19.37 87.78 19.37"/><polygon class="cls-4" points="77.66 21.19 75.65 29.3 80.73 29.3 82.75 21.2 82.75 21.19 77.66 21.19 77.66 21.19"/><path class="cls-4" d="M88.59,21.19l-2,8.12h4.58l2-8.12Zm5-1.82,1-3.81H90l-1,3.81Z"/><polygon class="cls-4" points="96.47 15.56 93.05 29.31 97.63 29.31 98.34 26.46 99.38 25.69 101 29.31 105.97 29.31 102.92 23.34 108.3 19.31 102.83 19.31 99.45 22.24 99.41 22.24 101.05 15.56 96.47 15.56"/><path class="cls-4" d="M46.22,8.87c.56,3.88,2.65,6.24,6.89,6.44a5.24,5.24,0,0,1-6.89-6.44"/><path class="cls-4" d="M44,9.56s.06,0,.06,0a8.27,8.27,0,0,0,8.43,7.92,6.49,6.49,0,0,1-8.49-8"/><path class="cls-1" d="M28.27,59.14H27.5l-3.45-8.2c-.48-1.12-1-2.35-1.44-3.68h-.08c.1,1.91.14,3.66.14,5.24v6.64H21V45.42h2.41l3.23,7.76c.37.89.78,2,1.22,3.21h.05c.5-1.39.9-2.46,1.22-3.21l3.23-7.76h2.41V59.14H33.1V52.5c0-1.55,0-3.29.15-5.24h-.09c-.5,1.41-1,2.63-1.43,3.68Z"/><path class="cls-1" d="M43.32,59.14H41.65V46.92H37.06v-1.5H47.9v1.5H43.32Z"/><path class="cls-1" d="M56.1,46.65A6.3,6.3,0,0,0,54,47a4.76,4.76,0,0,0-1.74,1.09,5.09,5.09,0,0,0-1.16,1.79,6.65,6.65,0,0,0-.43,2.5,6.82,6.82,0,0,0,.4,2.46,4.47,4.47,0,0,0,1.12,1.72,4.53,4.53,0,0,0,1.75,1,7.36,7.36,0,0,0,2.27.33,6.18,6.18,0,0,0,.73,0c.26,0,.51-.06.77-.1l.76-.15a5.86,5.86,0,0,0,.66-.2V58.9a6.93,6.93,0,0,1-1.4.37,11.11,11.11,0,0,1-1.64.12,8.87,8.87,0,0,1-3-.47,6.09,6.09,0,0,1-2.22-1.37,5.81,5.81,0,0,1-1.36-2.18A8.56,8.56,0,0,1,49,52.45a8.48,8.48,0,0,1,.49-2.94,6.26,6.26,0,0,1,3.63-3.81A7.61,7.61,0,0,1,56,45.16a8.12,8.12,0,0,1,.86,0c.28,0,.54.06.8.1a6.24,6.24,0,0,1,.71.16c.22.06.41.13.57.19v1.48a10,10,0,0,0-1.36-.34A7.45,7.45,0,0,0,56.1,46.65Z"/><path class="cls-1" d="M61.67,59.14V45.42h1.67V59.14Z"/><path class="cls-1" d="M68.67,59.14H67V45.42h3.8a10.91,10.91,0,0,1,1.57.1,6.48,6.48,0,0,1,1.33.32,3.72,3.72,0,0,1,1.86,1.32,3.51,3.51,0,0,1,.64,2.15,3.94,3.94,0,0,1-.42,1.85,3.51,3.51,0,0,1-1.2,1.32,5.79,5.79,0,0,1-1.92.81,11.08,11.08,0,0,1-2.57.27c-.45,0-.93,0-1.42-.06Zm0-7.17c.23,0,.46.05.71.06s.48,0,.7,0a9.72,9.72,0,0,0,2-.18,3.81,3.81,0,0,0,1.35-.54,2.14,2.14,0,0,0,.76-.86,2.67,2.67,0,0,0,.23-1.16A2.1,2.1,0,0,0,74.05,48,2.42,2.42,0,0,0,73,47.22a4.65,4.65,0,0,0-1-.23,12.58,12.58,0,0,0-1.33-.07H68.67Z"/><path class="cls-1" d="M82.45,57.53c.24-.71.56-1.62,1-2.72l2-5.41H87l-3.68,9.74H81.62L77.94,49.4h1.58l1.94,5.41c.39,1.07.7,2,1,2.72Z"/><path class="cls-1" d="M93.18,50.87a5.39,5.39,0,0,1,1.69.26,3.83,3.83,0,0,1,1.33.78,3.55,3.55,0,0,1,.87,1.26,4.54,4.54,0,0,1,.31,1.74,5.25,5.25,0,0,1-.29,1.81,4,4,0,0,1-.84,1.42,3.85,3.85,0,0,1-1.36.92,4.71,4.71,0,0,1-1.81.33A4.18,4.18,0,0,1,91.15,59a3.91,3.91,0,0,1-1.43-1.23,5.89,5.89,0,0,1-.89-1.94,10,10,0,0,1-.31-2.55,13.25,13.25,0,0,1,.17-2.11,10.28,10.28,0,0,1,.51-1.91A7.62,7.62,0,0,1,90,47.58a5.63,5.63,0,0,1,1.13-1.29,5.15,5.15,0,0,1,1.44-.83,5,5,0,0,1,1.75-.3,5.72,5.72,0,0,1,1.34.16,4.65,4.65,0,0,1,.94.32V47a6.8,6.8,0,0,0-1-.3,5.17,5.17,0,0,0-1.19-.13,3.56,3.56,0,0,0-1.43.3,3.68,3.68,0,0,0-1.26.93,5.85,5.85,0,0,0-1,1.6,8.84,8.84,0,0,0-.54,2.3h0a7,7,0,0,1,1.4-.59A5.59,5.59,0,0,1,93.18,50.87Zm0,7.17a2.59,2.59,0,0,0,1-.19,2.27,2.27,0,0,0,.82-.58,2.49,2.49,0,0,0,.55-.94,3.57,3.57,0,0,0,.2-1.27,3.5,3.5,0,0,0-.21-1.3,2.11,2.11,0,0,0-1.42-1.33,3.9,3.9,0,0,0-1-.14,4.61,4.61,0,0,0-1.49.25,7.3,7.3,0,0,0-1.38.63,9.72,9.72,0,0,0,.21,2.15A5,5,0,0,0,91,56.84a2.57,2.57,0,0,0,.93.9A2.48,2.48,0,0,0,93.14,58Z"/><path class="cls-1" d="M101.89,57.63h7v1.51h-8.7V45.42h8.32v1.5h-6.65v4.43h5.92v1.51h-5.92Z"/></svg>