<?xml version="1.0" encoding="utf-8"?>
<svg id="Layer_1" data-name="Layer 1" viewBox="0 0 195.9 100" height="100px" width="195.9px" xmlns="http://www.w3.org/2000/svg" xmlns:bx="https://boxy-svg.com">
  <defs>
    <style>.cls-1{fill:#fff;}.cls-2{fill:none;}.cls-3,.cls-4{fill:#404041;}.cls-4{fill-rule:evenodd;}</style>
  </defs>
  <rect class="cls-1" width="195.9" height="100" rx="8.5" bx:origin="0 0"/>
  <path class="cls-2" d="M 192.883 56.926 L 192.883 14.319 C 192.866 8.077 187.806 3.023 181.561 3.014 L 14.323 3.014 C 8.086 3.031 3.032 8.082 3.015 14.319 L 3.015 56.926 L 192.883 56.926 Z" style="" bx:origin="-0.015882 -0.055913"/>
  <path class="cls-3" d="M 181.561 0 L 14.323 0 C 6.415 0.009 0.008 6.413 0 14.319 L 0 85.64 C 0.008 93.544 6.415 99.95 14.323 99.959 L 181.561 99.959 C 189.47 99.95 195.883 93.547 195.9 85.64 L 195.9 14.319 C 195.883 6.412 189.47 0.009 181.561 0 Z M 14.323 3.014 L 181.561 3.014 C 187.806 3.023 192.866 8.077 192.883 14.319 L 192.883 56.926 L 3.015 56.926 L 3.015 14.319 C 3.032 8.082 8.086 3.031 14.323 3.014 Z" style="" bx:origin="0 0"/>
  <polygon class="cls-3" points="40.076 23.452 34.678 44.178 36.97 44.178 41.674 25.142 41.749 25.142 45.746 44.178 48.127 44.178 61.877 25.427 61.953 25.427 56.827 44.178 59.164 44.178 64.486 23.452 61.048 23.452 47.388 42.052 43.528 23.452 40.076 23.452" style="" bx:origin="-1.16338 -1.131636"/>
  <polygon class="cls-3" points="66.732 29.195 62.857 44.178 65.057 44.178 68.919 29.195 66.732 29.195" style="" bx:origin="-10.370652 -1.948693"/>
  <polygon class="cls-3" points="72.085 29.195 68.254 44.178 70.456 44.178 71.844 38.751 75.675 36.083 80.453 44.178 82.852 44.178 77.424 34.968 85.911 29.195 82.987 29.195 72.478 36.52 72.401 36.46 74.27 29.195 72.085 29.195" style="" bx:origin="-3.865929 -1.948693"/>
  <path class="cls-4" d="M 87.209 29.195 L 83.348 44.178 L 85.534 44.178 L 87.554 36.339 C 88.202 33.12 91.039 30.809 94.325 30.823 L 95.575 30.823 L 96.059 28.999 C 95.681 28.999 95.257 28.999 94.883 28.999 C 92.2 28.901 89.686 30.309 88.368 32.646 L 89.271 29.195 L 87.209 29.195 Z" style="" bx:origin="-6.557536 -1.909716"/>
  <path class="cls-4" d="M 111.286 34.666 C 111.286 30.987 108.362 28.805 104.184 28.805 C 98.69 28.515 94.092 32.919 94.143 38.418 C 94.143 42.156 96.691 44.657 101.32 44.657 C 106.935 44.905 111.548 40.278 111.286 34.666 M 109.083 35.041 C 109.083 38.523 106.552 43.12 101.742 43.12 C 98.078 43.12 96.344 41.147 96.344 38.237 C 96.26 34.017 99.571 30.503 103.794 30.339 C 107.322 30.339 109.083 32.27 109.083 35.041" style="" bx:origin="-5.488151 -1.813192"/>
  <polygon class="cls-4" points="132.349 29.195 133.766 23.452 112.313 23.452 110.894 29.195 117.786 29.195 117.786 29.195 125.457 29.195 125.457 29.195 132.349 29.195" style="" bx:origin="-4.848388 -4.083989"/>
  <polygon class="cls-4" points="117.091 31.938 114.06 44.162 121.719 44.162 124.765 31.953 124.765 31.938 117.091 31.938 117.091 31.938" style="" bx:origin="-10.654936 -2.612824"/>
  <path class="cls-4" d="M 133.57 31.938 L 130.555 44.178 L 137.462 44.178 L 140.476 31.938 L 133.57 31.938 Z M 141.109 29.195 L 142.617 23.452 L 135.696 23.452 L 134.188 29.195 L 141.109 29.195 Z" style="" bx:origin="-10.823753 -1.131636"/>
  <polygon class="cls-4" points="145.45 23.452 140.296 44.178 147.2 44.178 148.271 39.881 149.839 38.721 152.281 44.178 159.775 44.178 155.176 35.177 163.288 29.103 155.04 29.103 149.944 33.519 149.882 33.519 152.357 23.452 145.45 23.452" style="" bx:origin="-6.101641 -1.131636"/>
  <path class="cls-4" d="M 69.686 13.371 C 70.53 19.217 73.683 22.773 80.074 23.076 C 74.401 25.261 68.486 20.486 69.428 14.481 C 69.487 14.105 69.576 13.734 69.686 13.371" style="" bx:origin="-6.454351 -1.306203"/>
  <path class="cls-4" d="M 66.34 14.409 C 66.34 14.409 66.431 14.409 66.431 14.409 C 66.716 21.179 72.362 26.483 79.141 26.346 C 72.094 29.006 64.808 23.044 66.027 15.612 C 66.099 15.166 66.206 14.723 66.34 14.287" style="" bx:origin="-4.976191 -1.126072"/>
  <path class="cls-1" d="M 60.309 89.226 L 53.449 71.248 L 53.344 71.248 C 53.463 72.663 53.54 74.351 53.54 76.324 L 53.54 89.226 L 51.353 89.226 L 51.353 68.94 L 54.912 68.94 L 61.333 85.686 L 61.455 85.686 L 67.939 68.94 L 71.468 68.94 L 71.468 89.226 L 69.099 89.226 L 69.099 76.158 C 69.099 74.653 69.176 73.023 69.296 71.261 L 69.191 71.261 L 62.239 89.226 L 60.309 89.226 Z" style="" bx:origin="-2.553226 -3.398217"/>
  <path class="cls-1" d="M 83.287 89.226 L 80.922 89.226 L 80.922 71.034 L 74.497 71.034 L 74.497 68.94 L 89.712 68.94 L 89.712 71.034 L 83.287 71.034 L 83.287 89.226 Z" style="" bx:origin="-4.89693 -3.398217"/>
  <path class="cls-1" d="M 101.471 70.749 C 99.462 70.66 97.517 71.479 96.177 72.978 C 94.831 74.69 94.144 76.832 94.247 79.009 C 94.096 81.218 94.763 83.405 96.117 85.158 C 97.449 86.691 99.414 87.524 101.442 87.419 C 103.081 87.384 104.709 87.125 106.282 86.65 L 106.282 88.717 C 104.607 89.288 102.847 89.558 101.079 89.514 C 98.479 89.678 95.943 88.68 94.158 86.786 C 92.405 84.605 91.53 81.845 91.716 79.052 C 91.673 77.153 92.076 75.269 92.892 73.552 C 93.636 72.03 94.817 70.766 96.284 69.919 C 97.875 69.043 99.669 68.601 101.486 68.639 C 103.416 68.594 105.332 68.996 107.079 69.815 L 106.069 71.834 C 104.637 71.132 103.066 70.763 101.471 70.749 Z" style="" bx:origin="-5.958695 -3.28462"/>
  <path class="cls-1" d="M 126.65 89.226 L 123.876 89.226 L 112.779 72.196 L 112.673 72.196 C 112.824 74.199 112.899 76.023 112.899 77.697 L 112.899 89.226 L 110.714 89.226 L 110.714 68.94 L 113.382 68.94 L 124.447 85.912 L 124.554 85.912 C 124.554 85.671 124.554 84.855 124.433 83.497 C 124.311 82.144 124.343 81.179 124.433 80.591 L 124.433 68.94 L 126.65 68.94 L 126.65 89.226 Z" style="" bx:origin="-6.947023 -3.398217"/>
  <path class="cls-1" d="M 144.925 89.226 L 142.39 82.775 L 134.188 82.775 L 131.761 89.226 L 129.364 89.226 L 137.401 68.85 L 139.375 68.85 L 147.365 89.226 L 144.925 89.226 Z M 141.726 80.651 L 139.375 74.368 C 139.073 73.562 138.757 72.558 138.425 71.352 C 138.194 72.372 137.903 73.379 137.551 74.368 L 135.093 80.651 L 141.726 80.651 Z" style="" bx:origin="-7.185931 -3.378698"/>
</svg>
