<?xml version="1.0" encoding="utf-8"?>
<svg id="Layer_1" data-name="Layer 1" viewBox="0 0 129.93 66.32" xmlns="http://www.w3.org/2000/svg" xmlns:bx="https://boxy-svg.com">
  <defs>
    <style>.cls-1{fill:#fff;}.cls-2{fill:none;}.cls-3,.cls-4{fill:#404041;}.cls-4{fill-rule:evenodd;}</style>
  </defs>
  <rect class="cls-1" x="1.508" y="1.508" width="192.898" height="96.984" rx="8.5" bx:origin="-0.007817 -0.015547"/>
  <path class="cls-2" d="M 192.898 56.951 L 192.898 14.324 C 192.881 8.08 187.819 3.024 181.574 3.016 L 14.324 3.016 C 8.086 3.032 3.032 8.086 3.016 14.324 L 3.016 56.951 L 192.898 56.951 Z" bx:origin="-0.015882 -0.055913"/>
  <path class="cls-3" d="M 181.574 0 L 14.324 0 C 6.417 0.008 0.008 6.417 0 14.324 L 0 85.676 C 0.008 93.583 6.417 99.992 14.324 100 L 181.574 100 C 189.484 99.992 195.897 93.586 195.914 85.676 L 195.914 14.324 C 195.897 6.414 189.484 0.008 181.574 0 Z M 14.324 3.016 L 181.574 3.016 C 187.819 3.024 192.881 8.08 192.898 14.324 L 192.898 56.951 L 3.016 56.951 L 3.016 14.324 C 3.032 8.086 8.086 3.032 14.324 3.016 Z" bx:origin="0 0"/>
  <polygon class="cls-3" points="40.078 23.462 34.68 44.195 36.972 44.195 41.677 25.151 41.752 25.151 45.748 44.195 48.13 44.195 61.882 25.437 61.957 25.437 56.831 44.195 59.168 44.195 64.49 23.462 61.052 23.462 47.391 42.069 43.531 23.462 40.078 23.462" bx:origin="-1.16338 -1.131636"/>
  <polygon class="cls-3" points="66.737 29.207 62.862 44.195 65.063 44.195 68.923 29.207 66.737 29.207" bx:origin="-10.370652 -1.948693"/>
  <polygon class="cls-3" points="72.09 29.207 68.26 44.195 70.461 44.195 71.849 38.767 75.679 36.098 80.458 44.195 82.856 44.195 77.428 34.982 85.917 29.207 82.992 29.207 72.482 36.535 72.407 36.475 74.276 29.207 72.09 29.207" bx:origin="-3.865929 -1.948693"/>
  <path class="cls-4" d="M 87.214 29.207 L 83.353 44.195 L 85.54 44.195 L 87.56 36.354 C 88.209 33.133 91.045 30.821 94.331 30.835 L 95.582 30.835 L 96.065 29.011 C 95.688 29.011 95.265 29.011 94.888 29.011 C 92.206 28.913 89.693 30.321 88.375 32.66 L 89.279 29.207 L 87.214 29.207 Z" bx:origin="-6.557536 -1.909716"/>
  <path class="cls-4" d="M 111.294 34.68 C 111.294 31.001 108.369 28.815 104.192 28.815 C 98.697 28.528 94.099 32.933 94.15 38.435 C 94.15 42.174 96.698 44.677 101.327 44.677 C 106.942 44.923 111.556 40.295 111.294 34.68 M 109.092 35.057 C 109.092 38.54 106.559 43.139 101.749 43.139 C 98.085 43.139 96.351 41.164 96.351 38.254 C 96.266 34.03 99.578 30.516 103.8 30.353 C 107.328 30.353 109.092 32.283 109.092 35.057" bx:origin="-5.488151 -1.813192"/>
  <polygon class="cls-4" points="132.358 29.207 133.776 23.462 112.319 23.462 110.902 29.207 117.793 29.207 117.793 29.207 125.467 29.207 125.467 29.207 132.358 29.207" bx:origin="-4.848388 -4.083989"/>
  <polygon class="cls-4" points="117.099 31.951 114.068 44.18 121.728 44.18 124.774 31.966 124.774 31.951 117.099 31.951 117.099 31.951" bx:origin="-10.654936 -2.612824"/>
  <path class="cls-4" d="M 133.58 31.951 L 130.564 44.195 L 137.47 44.195 L 140.486 31.951 L 133.58 31.951 Z M 141.119 29.207 L 142.627 23.462 L 135.706 23.462 L 134.198 29.207 L 141.119 29.207 Z" bx:origin="-10.823753 -1.131636"/>
  <polygon class="cls-4" points="145.461 23.462 140.305 44.195 147.211 44.195 148.281 39.897 149.849 38.736 152.292 44.195 159.786 44.195 155.187 35.193 163.299 29.116 155.051 29.116 149.955 33.534 149.894 33.534 152.367 23.462 145.461 23.462" bx:origin="-6.101641 -1.131636"/>
  <path class="cls-4" d="M 69.692 13.375 C 70.537 19.225 73.688 22.783 80.081 23.085 C 74.406 25.273 68.491 20.496 69.434 14.488 C 69.493 14.111 69.58 13.739 69.692 13.375" bx:origin="-6.454351 -1.306203"/>
  <path class="cls-4" d="M 66.345 14.415 C 66.345 14.415 66.435 14.415 66.435 14.415 C 66.721 21.189 72.367 26.494 79.147 26.357 C 72.099 29.019 64.813 23.054 66.032 15.62 C 66.105 15.171 66.21 14.728 66.345 14.294" bx:origin="-4.976191 -1.126072"/>
  <path class="cls-1" d="M 60.314 89.264 L 53.453 71.276 L 53.347 71.276 C 53.468 72.693 53.543 74.382 53.543 76.357 L 53.543 89.264 L 51.357 89.264 L 51.357 68.969 L 54.916 68.969 L 61.339 85.721 L 61.46 85.721 L 67.943 68.969 L 71.472 68.969 L 71.472 89.264 L 69.104 89.264 L 69.104 76.191 C 69.104 74.683 69.18 73.055 69.3 71.291 L 69.195 71.291 L 62.244 89.264 L 60.314 89.264 Z" bx:origin="-2.553226 -3.398217"/>
  <path class="cls-1" d="M 83.293 89.264 L 80.926 89.264 L 80.926 71.065 L 74.502 71.065 L 74.502 68.969 L 89.717 68.969 L 89.717 71.065 L 83.293 71.065 L 83.293 89.264 Z" bx:origin="-4.89693 -3.398217"/>
  <path class="cls-1" d="M 101.478 70.778 C 99.468 70.689 97.524 71.508 96.185 73.01 C 94.836 74.722 94.151 76.864 94.255 79.041 C 94.104 81.251 94.769 83.44 96.125 85.193 C 97.456 86.727 99.42 87.561 101.448 87.455 C 103.088 87.42 104.717 87.162 106.288 86.686 L 106.288 88.752 C 104.615 89.325 102.853 89.596 101.086 89.551 C 98.487 89.716 95.95 88.716 94.165 86.821 C 92.41 84.64 91.538 81.88 91.722 79.086 C 91.681 77.185 92.083 75.301 92.898 73.583 C 93.642 72.06 94.823 70.795 96.291 69.949 C 97.882 69.071 99.676 68.629 101.493 68.667 C 103.423 68.623 105.338 69.025 107.087 69.843 L 106.077 71.864 C 104.644 71.162 103.073 70.791 101.478 70.778 Z" bx:origin="-5.958695 -3.28462"/>
  <path class="cls-1" d="M 126.659 89.264 L 123.884 89.264 L 112.786 72.226 L 112.681 72.226 C 112.832 74.231 112.907 76.055 112.907 77.729 L 112.907 89.264 L 110.721 89.264 L 110.721 68.969 L 113.39 68.969 L 124.457 85.947 L 124.563 85.947 C 124.563 85.706 124.563 84.891 124.442 83.534 C 124.321 82.177 124.352 81.212 124.442 80.624 L 124.442 68.969 L 126.659 68.969 L 126.659 89.264 Z" bx:origin="-6.947023 -3.398217"/>
  <path class="cls-1" d="M 144.934 89.264 L 142.4 82.811 L 134.198 82.811 L 131.77 89.264 L 129.373 89.264 L 137.41 68.878 L 139.385 68.878 L 147.376 89.264 L 144.934 89.264 Z M 141.737 80.685 L 139.385 74.397 C 139.083 73.593 138.767 72.587 138.435 71.381 C 138.205 72.403 137.913 73.41 137.56 74.397 L 135.103 80.685 L 141.737 80.685 Z" bx:origin="-7.185931 -3.378698"/>
</svg>