<svg id="Layer_1" data-name="Layer 1" xmlns="http://www.w3.org/2000/svg" viewBox="0 0 129.93 66.32"><defs><style>.cls-1{fill:#fff;}.cls-2{fill:none;}.cls-3,.cls-4{fill:#404041;}.cls-4{fill-rule:evenodd;}</style></defs><rect class="cls-1" x="1" y="1" width="127.93" height="64.32" rx="8.5"/><path class="cls-2" d="M127.93,37.77V9.5A7.52,7.52,0,0,0,120.42,2H9.5A7.52,7.52,0,0,0,2,9.5V37.77Z"/><path class="cls-3" d="M120.42,0H9.5A9.51,9.51,0,0,0,0,9.5V56.82a9.51,9.51,0,0,0,9.5,9.5H120.42a9.52,9.52,0,0,0,9.51-9.5V9.5A9.52,9.52,0,0,0,120.42,0ZM9.5,2H120.42a7.52,7.52,0,0,1,7.51,7.5V37.77H2V9.5A7.52,7.52,0,0,1,9.5,2Z"/><polygon class="cls-3" points="26.58 15.56 23 29.31 24.52 29.31 27.64 16.68 27.69 16.68 30.34 29.31 31.92 29.31 41.04 16.87 41.09 16.87 37.69 29.31 39.24 29.31 42.77 15.56 40.49 15.56 31.43 27.9 28.87 15.56 26.58 15.56"/><polygon class="cls-3" points="44.26 19.37 41.69 29.31 43.15 29.31 45.71 19.37 44.26 19.37"/><polygon class="cls-3" points="47.81 19.37 45.27 29.31 46.73 29.31 47.65 25.71 50.19 23.94 53.36 29.31 54.95 29.31 51.35 23.2 56.98 19.37 55.04 19.37 48.07 24.23 48.02 24.19 49.26 19.37 47.81 19.37"/><path class="cls-4" d="M57.84,19.37l-2.56,9.94h1.45l1.34-5.2a4.56,4.56,0,0,1,4.49-3.66l.83,0,.32-1.21c-.25,0-.53,0-.78,0a4.76,4.76,0,0,0-4.32,2.42h0l.6-2.29Z"/><path class="cls-4" d="M73.81,23c0-2.44-1.94-3.89-4.71-3.89a6.33,6.33,0,0,0-6.66,6.38c0,2.48,1.69,4.14,4.76,4.14A6.34,6.34,0,0,0,73.81,23m-1.46.25c0,2.31-1.68,5.36-4.87,5.36-2.43,0-3.58-1.31-3.58-3.24a5.14,5.14,0,0,1,4.94-5.24c2.34,0,3.51,1.28,3.51,3.12"/><polygon class="cls-4" points="87.78 19.37 88.72 15.56 74.49 15.56 73.55 19.37 78.12 19.37 78.12 19.37 83.21 19.37 83.21 19.37 87.78 19.37"/><polygon class="cls-4" points="77.66 21.19 75.65 29.3 80.73 29.3 82.75 21.2 82.75 21.19 77.66 21.19 77.66 21.19"/><path class="cls-4" d="M88.59,21.19l-2,8.12h4.58l2-8.12Zm5-1.82,1-3.81H90l-1,3.81Z"/><polygon class="cls-4" points="96.47 15.56 93.05 29.31 97.63 29.31 98.34 26.46 99.38 25.69 101 29.31 105.97 29.31 102.92 23.34 108.3 19.31 102.83 19.31 99.45 22.24 99.41 22.24 101.05 15.56 96.47 15.56"/><path class="cls-4" d="M46.22,8.87c.56,3.88,2.65,6.24,6.89,6.44a5.24,5.24,0,0,1-6.89-6.44"/><path class="cls-4" d="M44,9.56s.06,0,.06,0a8.27,8.27,0,0,0,8.43,7.92,6.49,6.49,0,0,1-8.49-8"/><path class="cls-1" d="M42,59.2,37.44,47.27h-.07c.09.94.13,2.06.13,3.37V59.2H36.05V45.74h2.36l4.27,11.11h.07l4.3-11.11h2.34V59.2H47.83V50.53c0-1,0-2.08.12-3.25h-.07L43.27,59.2Z"/><path class="cls-1" d="M57.23,59.2H55.66V47.13H51.4V45.74H61.49v1.39H57.23Z"/><path class="cls-1" d="M69.29,46.94a4.44,4.44,0,0,0-3.51,1.48,6,6,0,0,0-1.28,4,6,6,0,0,0,1.24,4.08A4.37,4.37,0,0,0,69.27,58a11.93,11.93,0,0,0,3.21-.51v1.37a9.85,9.85,0,0,1-3.45.53,5.83,5.83,0,0,1-4.59-1.81,7.41,7.41,0,0,1-1.62-5.13,8.11,8.11,0,0,1,.78-3.65,5.64,5.64,0,0,1,2.25-2.41,6.85,6.85,0,0,1,3.46-.85,8.29,8.29,0,0,1,3.7.78l-.66,1.34A7.13,7.13,0,0,0,69.29,46.94Z"/><path class="cls-1" d="M77,53.6v5.6H75.42V45.74h3.7a5.83,5.83,0,0,1,3.66.94A3.46,3.46,0,0,1,84,49.54a3.57,3.57,0,0,1-2.71,3.61l3.66,6.05H83.06L79.8,53.6Zm0-1.34h2.14a3.73,3.73,0,0,0,2.44-.66,2.48,2.48,0,0,0,.77-2,2.22,2.22,0,0,0-.79-1.92A4.28,4.28,0,0,0,79,47.11H77Z"/><path class="cls-1" d="M94.59,59.2H87.08V45.74h7.51v1.39H88.65v4.34h5.58v1.38H88.65V57.8h5.94Z"/></svg>