<?xml version="1.0" encoding="utf-8"?>
<svg viewBox="0 0 220.294 100" width="220.294px" height="100px" xmlns="http://www.w3.org/2000/svg" xmlns:bx="https://boxy-svg.com">
  <defs>
    <style>.cls-1{fill:#31363a;}</style>
  </defs>
  <g transform="matrix(1.101415, 0, 0, 1.101476, 0.011093, 0)" bx:origin="-0.000042 0">
    <title>Head</title>
    <path class="cls-1" d="M 31.905 8.645 L 31.726 8.377 C 31.251 7.852 30.676 7.427 30.033 7.13 L 24.24 3.921 L 18.447 0.713 C 17.83 0.386 17.17 0.146 16.486 0 L 16.13 0 C 15.343 0.068 14.582 0.311 13.902 0.713 L 8.109 3.921 L 2.227 7.13 C 1.609 7.427 1.063 7.853 0.623 8.377 L 0.445 8.645 C 0.379 8.718 0.347 8.815 0.355 8.912 C 0.077 9.526 -0.046 10.2 -0.001 10.873 L -0.001 23.617 C -0.02 24.384 0.133 25.145 0.445 25.845 C 0.939 26.457 1.543 26.971 2.227 27.36 L 8.109 30.48 L 13.902 33.688 C 14.495 34.066 15.165 34.309 15.863 34.401 L 16.486 34.401 C 17.181 34.297 17.847 34.054 18.447 33.688 L 30.033 27.36 C 30.758 26.994 31.396 26.478 31.905 25.845 C 31.905 25.756 31.994 25.667 31.994 25.578 C 32.266 24.961 32.388 24.29 32.35 23.617 L 32.35 10.873 C 32.395 10.2 32.272 9.526 31.994 8.912 C 31.994 8.823 31.905 8.734 31.905 8.645 M 9.357 23.885 C 9.383 24.158 9.103 24.356 8.853 24.242 C 8.807 24.221 8.766 24.19 8.733 24.152 L 6.683 23.083 C 6.16 22.805 5.847 22.247 5.881 21.657 L 5.881 15.507 C 5.91 15.251 6.193 15.109 6.416 15.24 L 8.911 16.577 C 9.169 16.68 9.342 16.923 9.357 17.201 L 9.357 23.885 Z M 26.468 21.657 C 26.464 22.238 26.161 22.777 25.666 23.083 L 23.527 24.152 C 23.349 24.33 22.992 24.152 22.992 23.885 L 22.992 15.685 C 23.031 15.414 22.761 15.202 22.506 15.305 C 22.49 15.312 22.473 15.32 22.458 15.329 L 18.715 17.379 C 18.206 17.626 17.891 18.151 17.912 18.716 L 17.912 26.826 C 17.892 27.122 17.725 27.391 17.467 27.539 L 16.932 27.806 C 16.463 28.077 15.886 28.077 15.417 27.806 L 14.793 27.539 C 14.587 27.356 14.459 27.1 14.437 26.826 L 14.437 18.716 C 14.458 18.151 14.143 17.626 13.635 17.379 L 5.881 13.19 L 5.881 12.744 C 5.86 12.179 6.174 11.654 6.683 11.408 L 7.485 10.962 C 7.954 10.691 8.531 10.691 9 10.962 L 15.417 14.438 C 15.886 14.709 16.463 14.709 16.932 14.438 L 19.873 12.834 C 20.111 12.655 20.111 12.299 19.873 12.121 L 13.189 8.467 C 12.949 8.334 12.943 7.991 13.177 7.849 C 13.182 7.847 13.185 7.845 13.189 7.843 L 15.417 6.595 C 15.886 6.324 16.463 6.324 16.932 6.595 L 25.666 11.408 C 26.135 11.696 26.434 12.195 26.468 12.744 L 26.468 21.657 Z">
      <title>Picto</title>
    </path>
    <g transform="matrix(0.891219, 0, 0, 0.891219, -0.001078, 0)">
      <title>mikrotik</title>
      <path class="cls-1" d="M 91.8 10.7 L 89.3 10.7 C 88.913 10.7 88.6 11.013 88.6 11.4 L 88.6 27.2 C 88.6 27.587 88.913 27.9 89.3 27.9 L 91.8 27.9 C 92.187 27.9 92.5 27.587 92.5 27.2 L 92.5 11.4 C 92.5 11.013 92.187 10.7 91.8 10.7"/>
      <path class="cls-1" d="M 71.1 10.5 C 68.905 10.446 66.779 11.274 65.2 12.8 C 65 12.906 64.754 12.865 64.6 12.7 C 63.214 11.205 61.237 10.399 59.2 10.5 C 57.368 10.46 55.586 11.102 54.2 12.3 L 54.2 11.4 C 54.2 11.013 53.887 10.7 53.5 10.7 L 51 10.7 C 50.613 10.7 50.3 11.013 50.3 11.4 L 50.3 27.2 C 50.3 27.587 50.613 27.9 51 27.9 L 53.6 27.9 C 53.987 27.9 54.3 27.587 54.3 27.2 L 54.3 19.1 C 54.3 16 55.9 14.2 58.6 14.2 C 61.3 14.2 62.3 15.6 62.3 18.4 L 62.3 27.2 C 62.3 27.587 62.613 27.9 63 27.9 L 65.6 27.9 C 65.987 27.9 66.3 27.587 66.3 27.2 L 66.3 19.1 C 66.3 16 67.8 14.2 70.6 14.2 C 73.4 14.2 74.2 15.6 74.2 18.4 L 74.2 27.2 C 74.244 27.567 74.533 27.856 74.9 27.9 L 77.5 27.9 C 77.887 27.9 78.2 27.587 78.2 27.2 L 78.2 18.1 C 78.2 13.3 75.6 10.5 71.1 10.5"/>
      <path class="cls-1" d="M 184 10.7 L 168.5 10.7 C 168.113 10.7 167.8 11.013 167.8 11.4 L 167.8 13.7 C 167.8 14.087 168.113 14.4 168.5 14.4 L 173.8 14.4 C 174.037 14.448 174.205 14.659 174.2 14.9 L 174.2 27.2 C 174.2 27.587 174.513 27.9 174.9 27.9 L 177.6 27.9 C 177.987 27.9 178.3 27.587 178.3 27.2 L 178.3 14.9 C 178.3 14.624 178.524 14.4 178.8 14.4 L 184 14.4 C 184.387 14.4 184.7 14.087 184.7 13.7 L 184.7 11.4 C 184.7 11.013 184.387 10.7 184 10.7"/>
      <path class="cls-1" d="M 224.1 27.2 L 217 18.3 C 216.9 18.1 216.9 17.8 217.1 17.7 L 223.4 11.5 C 223.631 11.205 223.468 10.77 223.1 10.7 L 219.4 10.7 L 218.9 10.9 L 211.8 17.4 C 211.598 17.632 211.22 17.559 211.12 17.267 C 211.101 17.214 211.095 17.157 211.1 17.1 L 211.1 11.4 C 211.056 11.033 210.767 10.744 210.4 10.7 L 207.8 10.7 C 207.413 10.7 207.1 11.013 207.1 11.4 L 207.1 27.2 C 207.1 27.587 207.413 27.9 207.8 27.9 L 210.4 27.9 C 210.767 27.856 211.056 27.567 211.1 27.2 L 211.1 23.5 C 211.1 23.3 211.2 23.2 211.4 23 L 213.6 21 C 213.8 20.8 214.1 20.8 214.2 21 L 219.6 27.7 L 220.1 27.9 L 223.8 27.9 C 224.069 28.054 224.404 27.859 224.403 27.548 C 224.402 27.404 224.325 27.271 224.2 27.2"/>
      <path class="cls-1" d="M 196 10.7 L 193.5 10.7 C 193.113 10.7 192.8 11.013 192.8 11.4 L 192.8 27.2 C 192.8 27.587 193.113 27.9 193.5 27.9 L 196 27.9 C 196.406 27.903 196.749 27.602 196.8 27.2 L 196.8 11.4 C 196.749 10.998 196.406 10.697 196 10.7"/>
      <path class="cls-1" d="M 112.8 18.3 C 112.7 18.1 112.7 17.8 112.9 17.7 L 119.2 11.5 C 119.431 11.205 119.268 10.77 118.9 10.7 L 115.2 10.7 L 114.7 10.9 L 107.6 17.4 C 107.398 17.632 107.02 17.559 106.92 17.267 C 106.901 17.214 106.895 17.157 106.9 17.1 L 106.9 11.4 C 106.856 11.033 106.567 10.744 106.2 10.7 L 103.6 10.7 C 103.213 10.7 102.9 11.013 102.9 11.4 L 102.9 27.2 C 102.9 27.587 103.213 27.9 103.6 27.9 L 106.1 27.9 C 106.506 27.903 106.849 27.602 106.9 27.2 L 106.9 23.5 C 106.9 23.3 107 23.2 107.2 23 L 109.4 21 C 109.6 20.8 109.9 20.8 110 21 L 115.4 27.7 L 115.9 27.9 L 119.6 27.9 C 119.869 28.054 120.204 27.859 120.203 27.548 C 120.202 27.404 120.125 27.271 120 27.2 L 112.8 18.3 Z"/>
      <path class="cls-1" d="M 153.5 10.5 C 148.515 10.266 144.378 14.311 144.5 19.3 C 145.229 26.19 153.143 29.706 158.745 25.63 C 160.804 24.132 162.132 21.832 162.4 19.3 C 162.581 14.327 158.471 10.263 153.5 10.5 M 153.5 24.5 C 150.6 24.5 148.6 22.4 148.6 19.3 C 148.423 16.493 150.688 14.136 153.5 14.2 C 156.34 14.068 158.645 16.468 158.4 19.3 C 158.4 22.4 156.4 24.5 153.5 24.5"/>
      <path class="cls-1" d="M 138.3 10.6 L 137.1 10.6 C 135.147 10.476 133.229 11.163 131.8 12.5 L 131.8 11.5 C 131.8 11.113 131.487 10.8 131.1 10.8 L 128.6 10.8 C 128.213 10.8 127.9 11.113 127.9 11.5 L 127.9 27.2 C 127.9 27.587 128.213 27.9 128.6 27.9 L 131.2 27.9 C 131.587 27.9 131.9 27.587 131.9 27.2 L 131.9 19.3 C 131.9 16.2 133.5 14.4 136.4 14.4 L 138.4 14.4 C 138.806 14.403 139.149 14.102 139.2 13.7 L 139.2 11.6 C 139.163 11.101 138.793 10.69 138.3 10.6"/>
    </g>
  </g>
  <g transform="matrix(0.981602, 0, 0, 0.981656, 0.009906, 0)" bx:origin="-0.289359 -3.711538">
    <title>MTCNA</title>
    <polygon class="cls-1" points="50.3 38.7 52.6 38.7 55.6 43.8 58.6 38.7 60.8 38.7 60.8 49 58.6 49 58.6 42.7 56.3 46.7 54.9 46.7 52.5 42.7 52.5 49 50.3 49 50.3 38.7"/>
    <polygon class="cls-1" points="64.3 40.9 62 40.9 62 38.7 69 38.7 69 40.9 66.7 40.9 66.7 49 64.3 49 64.3 40.9"/>
    <path class="cls-1" d="M 69.5 43.9 C 69.5 40.7 71.7 38.6 75 38.6 L 76.5 38.6 L 76.5 40.7 L 75.1 40.7 C 73.255 40.497 71.697 42.055 71.9 43.9 C 71.765 45.706 73.299 47.192 75.1 47 L 76.5 47 L 76.5 49 L 75 49 C 71.7 49 69.5 46.9 69.5 43.8"/>
    <polygon class="cls-1" points="78.1 38.7 80.2 38.7 84.1 44.8 84.1 38.7 86.3 38.7 86.3 49 84.2 49 80.3 42.9 80.3 49 78.1 49 78.1 38.7"/>
    <path class="cls-1" d="M 90.9 38.7 L 93.2 38.7 L 96.7 49 L 94.2 49 L 93.8 47.5 L 90.3 47.5 L 89.8 49 L 87.4 49 L 90.9 38.7 Z M 93.2 45.5 L 92 41.8 L 90.9 45.5 L 93.2 45.5 Z"/>
    <rect class="cls-1" x="100" y="38.7" width="124.2" height="0.85"/>
  </g>
  <g transform="matrix(0.981789, 0, 0, 0.970475, 0.176954, 13.439684)" bx:origin="-0.290337 -4.988365">
    <title>MTCIPv6E</title>
    <polygon class="cls-1" points="50.3 38.7 52.6 38.7 55.6 43.8 58.6 38.7 60.8 38.7 60.8 49 58.6 49 58.6 42.7 56.3 46.7 54.9 46.7 52.5 42.7 52.5 49 50.3 49 50.3 38.7"/>
    <polygon class="cls-1" points="64.3 40.9 62 40.9 62 38.7 69 38.7 69 40.9 66.7 40.9 66.7 49 64.3 49 64.3 40.9"/>
    <path class="cls-1" d="M 69.5 43.9 C 69.5 40.7 71.7 38.6 75 38.6 L 76.5 38.6 L 76.5 40.7 L 75.1 40.7 C 73.255 40.497 71.697 42.055 71.9 43.9 C 71.765 45.706 73.299 47.192 75.1 47 L 76.5 47 L 76.5 49 L 75 49 C 71.7 49 69.5 46.9 69.5 43.8"/>
    <rect class="cls-1" x="78.1" y="38.7" width="2.3" height="10.3"/>
    <path class="cls-1" d="M 82.4 38.7 L 85.8 38.7 C 88.1 38.7 89.5 40 89.5 42.1 C 89.5 44.2 88.1 45.3 85.8 45.3 L 84.8 45.3 L 84.8 49 L 82.4 49 L 82.4 38.7 Z M 85.9 43.2 C 86.7 43.2 87.2 42.8 87.2 42.1 C 87.202 41.396 86.601 40.841 85.9 40.9 L 84.8 40.9 L 84.8 43.2 L 85.9 43.2 Z"/>
    <polygon class="cls-1" points="89.9 41.6 92.3 41.6 93.8 46.1 95.3 41.6 97.6 41.6 94.9 49 92.6 49 89.9 41.6"/>
    <path class="cls-1" d="M 98.2 45.5 C 98.26 44.32 98.64 43.18 99.3 42.2 L 101.3 38.7 L 103.9 38.7 L 101.7 42.1 L 102.4 42.1 C 104.288 42.037 105.819 43.615 105.7 45.5 C 105.703 47.569 103.966 49.215 101.9 49.1 C 99.824 49.288 98.069 47.581 98.2 45.5 M 101.9 47 C 103.055 47 103.776 45.75 103.199 44.75 C 102.931 44.286 102.436 44 101.9 44 C 100.745 44 100.024 45.25 100.601 46.25 C 100.869 46.714 101.364 47 101.9 47"/>
    <polygon class="cls-1" points="107 38.7 112.9 38.7 112.9 40.9 109.4 40.9 109.4 42.7 112.8 42.7 112.8 44.9 109.4 44.9 109.4 46.8 112.9 46.8 112.9 49 107 49 107 38.7"/>
    <rect class="cls-1" x="118.9" y="38.7" width="105.3" height="0.85"/>
  </g>
  <g transform="matrix(0.981956, 0, 0, 0.989955, 0.07255, 25.687746)" bx:origin="-0.289726 -6.206576">
    <title>MTCRE</title>
    <polygon class="cls-1" points="50.3 38.7 52.6 38.7 55.6 43.8 58.6 38.7 60.8 38.7 60.8 49 58.6 49 58.6 42.7 56.3 46.7 54.9 46.7 52.5 42.7 52.5 49 50.3 49 50.3 38.7"/>
    <polygon class="cls-1" points="64.3 40.9 62 40.9 62 38.7 69 38.7 69 40.9 66.7 40.9 66.7 49 64.3 49 64.3 40.9"/>
    <path class="cls-1" d="M 69.5 43.9 C 69.5 40.7 71.7 38.6 75 38.6 L 76.5 38.6 L 76.5 40.7 L 75.1 40.7 C 73.255 40.497 71.697 42.055 71.9 43.9 C 71.765 45.706 73.299 47.192 75.1 47 L 76.5 47 L 76.5 49 L 75 49 C 71.7 49 69.5 46.9 69.5 43.8"/>
    <path class="cls-1" d="M 80.4 45 L 80.4 49 L 78.1 49 L 78.1 38.7 L 81.6 38.7 C 83.8 38.7 85.1 39.8 85.1 41.9 C 85.13 43.294 84.164 44.512 82.8 44.8 L 85.8 49 L 83 49 L 80.4 45 Z M 81.5 43.1 C 82.3 43.1 82.8 42.7 82.8 41.9 C 82.802 41.196 82.201 40.641 81.5 40.7 L 80.4 40.7 L 80.4 43.1 L 81.5 43.1 Z"/>
    <polygon class="cls-1" points="87 38.7 92.8 38.7 92.8 40.9 89.3 40.9 89.3 42.7 92.8 42.7 92.8 44.9 89.3 44.9 89.3 46.8 92.9 46.8 92.9 49 87 49 87 38.7"/>
    <rect class="cls-1" x="100" y="38.7" width="124.2" height="0.85"/>
  </g>
  <g id="Calque_1-2" data-name="Calque 1" transform="matrix(0.981956, 0, 0, 0.987535, 0.139658, 39.190109)" bx:origin="-0.290119 -7.508105">
    <title>MTCTCE</title>
    <polygon class="cls-1" points="50.3 38.7 52.6 38.7 55.6 43.8 58.6 38.7 60.8 38.7 60.8 49 58.6 49 58.6 42.7 56.3 46.7 54.9 46.7 52.5 42.7 52.5 49 50.3 49 50.3 38.7"/>
    <polygon class="cls-1" points="64.3 40.9 62 40.9 62 38.7 69 38.7 69 40.9 66.7 40.9 66.7 49 64.3 49 64.3 40.9"/>
    <path class="cls-1" d="M69.5,43.9c0-3.2,2.2-5.3,5.5-5.3h1.5v2.1H75.1a2.9,2.9,0,0,0-3.2,3.2A2.9,2.9,0,0,0,75.1,47h1.4V49H75c-3.3,0-5.5-2.1-5.5-5.2"/>
    <polygon class="cls-1" points="79.6 40.9 77.3 40.9 77.3 38.7 84.3 38.7 84.3 40.9 81.9 40.9 81.9 49 79.6 49 79.6 40.9"/>
    <path class="cls-1" d="M84.8,43.9a5.1,5.1,0,0,1,5.4-5.3h1.6v2.1H90.4a2.9,2.9,0,0,0-3.2,3.2A2.9,2.9,0,0,0,90.4,47h1.4V49H90.2a5,5,0,0,1-5.4-5.2"/>
    <polygon class="cls-1" points="93.4 38.7 99.2 38.7 99.2 40.9 95.7 40.9 95.7 42.7 99.2 42.7 99.2 44.9 95.7 44.9 95.7 46.8 99.3 46.8 99.3 49 93.4 49 93.4 38.7"/>
    <rect class="cls-1" x="105.3" y="38.7" width="118.9" height="0.85"/>
  </g>
  <g transform="matrix(0.981956, 0, 0, 0.989955, 0.139673, 51.492214)" bx:origin="-0.290119 -8.712951">
    <title>MTCWE</title>
    <polygon class="cls-1" points="50.3 38.7 52.6 38.7 55.6 43.8 58.6 38.7 60.8 38.7 60.8 49 58.6 49 58.6 42.7 56.3 46.7 54.9 46.7 52.5 42.7 52.5 49 50.3 49 50.3 38.7"/>
    <polygon class="cls-1" points="64.3 40.9 62 40.9 62 38.7 69 38.7 69 40.9 66.7 40.9 66.7 49 64.3 49 64.3 40.9"/>
    <path class="cls-1" d="M 69.5 43.9 C 69.5 40.7 71.7 38.6 75 38.6 L 76.5 38.6 L 76.5 40.7 L 75.1 40.7 C 73.255 40.497 71.697 42.055 71.9 43.9 C 71.765 45.706 73.299 47.192 75.1 47 L 76.5 47 L 76.5 49 L 75 49 C 71.7 49 69.5 46.9 69.5 43.8"/>
    <polygon class="cls-1" points="77.4 38.7 79.7 38.7 81.3 45.3 83.2 38.7 85.4 38.7 87.4 45.4 89 38.7 91.3 38.7 88.7 49 86.4 49 84.3 42.4 82.3 49 80 49 77.4 38.7"/>
    <polygon class="cls-1" points="92.6 38.7 98.4 38.7 98.4 40.9 94.9 40.9 94.9 42.7 98.4 42.7 98.4 44.9 94.9 44.9 94.9 46.8 98.5 46.8 98.5 49 92.6 49 92.6 38.7"/>
    <rect class="cls-1" x="104.5" y="38.7" width="119.7" height="0.85"/>
  </g>
</svg>