<?xml version="1.0" encoding="utf-8"?>
<svg version="1.1" x="0px" y="0px" viewBox="0 0 93.824 92.779" enable-background="new 0 0 100 100" xmlns="http://www.w3.org/2000/svg">
  <g transform="matrix(1, 0, 0, 1, -3.068, -0.417)">
    <path d="M 31.999 59.971 C 31.643 61.29 31.441 62.794 31.441 64.392 C 31.441 67.351 32.131 69.992 33.212 71.73 C 35.552 73.122 37.721 81.912 39.258 85.231 C 46.982 93.059 55.936 90.773 60.741 85.282 C 63.321 81.457 64.503 73.122 66.842 71.73 C 67.922 69.992 68.613 67.351 68.613 64.392 C 68.613 62.794 68.412 61.29 68.053 59.971 L 68.045 59.944 C 67.719 58.606 67.522 57.136 67.522 55.491 C 67.522 53.984 67.677 52.562 67.949 51.305 C 68.043 50.897 68.098 50.483 68.098 50.043 C 68.098 47.182 65.941 44.862 63.28 44.862 C 61.9 44.862 60.663 45.487 59.77 46.496 L 59.646 46.642 C 57.388 49.284 53.952 50.97 50.099 50.97 L 50.024 50.97 L 49.948 50.97 C 46.097 50.97 42.66 49.283 40.401 46.642 L 40.278 46.496 C 39.386 45.487 38.148 44.862 36.767 44.862 C 34.107 44.862 31.95 47.181 31.95 50.043 C 31.95 50.403 31.987 50.746 32.053 51.081 C 32.359 52.392 32.532 53.893 32.532 55.49 C 32.532 57.136 32.335 58.605 32.009 59.943 L 31.999 59.971 Z M 27.806 57.569 C 26.771 59.198 26.35 61.519 26.812 64.007 C 27.415 67.251 29.349 69.884 31.628 70.925 L 27.806 57.569 Z M 68.478 70.754 C 70.604 69.614 72.376 67.087 72.946 64.008 C 73.379 61.688 73.041 59.512 72.153 57.908 L 68.478 70.754 Z M 3.068 38.634 C 3.068 17.527 24.08 0.417 50 0.417 C 75.919 0.417 96.931 17.527 96.931 38.634 C 96.931 54.698 84.76 68.446 67.52 74.101 L 66.77 76.721 C 65.13 82.883 64.982 82.897 63.729 85.571 C 62.697 89.935 56.62 93.17 50.167 93.17 L 50.027 93.169 L 49.888 93.17 C 43.433 93.17 37.116 89.847 36.082 85.483 C 34.83 82.809 34.925 82.883 33.285 76.721 L 32.541 74.121 C 15.268 68.48 3.068 54.718 3.068 38.634 Z M 37.108 63.135 C 37.607 62.641 39.096 61.345 41.233 61.047 C 43.627 60.714 44.882 62.735 45.106 63.135 L 37.108 63.135 Z M 35.153 59.545 C 36.294 58.153 38.352 57.144 40.758 56.975 C 42.7 56.839 44.493 57.278 45.81 58.094 L 47.219 61.68 C 45.536 60.09 42.668 58.971 39.552 58.877 C 37.894 58.826 36.388 59.076 35.153 59.545 Z M 64.604 59.545 C 63.37 59.076 61.865 58.826 60.206 58.877 C 57.09 58.971 54.222 60.09 52.538 61.68 L 53.947 58.094 C 55.263 57.278 57.057 56.839 59 56.975 C 61.405 57.144 63.464 58.153 64.604 59.545 Z M 62.649 63.135 L 54.652 63.135 C 54.874 62.735 56.131 60.714 58.524 61.047 C 60.662 61.345 62.15 62.641 62.649 63.135 Z" style="fill: rgb(255, 255, 255);"/>
  </g>
</svg>